<?xml version="1.0" encoding="utf-8"?>
<!-- Generator: Adobe Illustrator 19.0.1, SVG Export Plug-In . SVG Version: 6.00 Build 0)  -->
<svg version="1.1" id="Слой_1" xmlns="http://www.w3.org/2000/svg" xmlns:xlink="http://www.w3.org/1999/xlink" x="0px" y="0px"
	 width="88.5px" height="105.2px" viewBox="0 0 88.5 105.2" enable-background="new 0 0 88.5 105.2" xml:space="preserve">
<g>
	<path fill="#FFDAB9" d="M64.1,24.6c0,2.2-0.1,4.3-0.4,6.4c-1.6,14-8.7,24.5-19.5,24.5c-10.9,0-18-10.5-19.5-24.6
		c-0.2-2-0.3-4.1-0.3-6.2c0-11,8.9-19.9,19.9-19.9C55.2,4.7,64.1,13.6,64.1,24.6z"/>
	<path fill="#FFE4C3" d="M63.8,31c0.2-2.1,0.4-4.2,0.4-6.4c0-11-8.9-19.9-19.9-19.9v50.7C55.1,55.4,62.1,45,63.8,31z"/>
	<path fill="#34495E" d="M61.3,31c0,1.5-2,8.2-6.5,12.9c0,0-6.1-5.4-10.6-5.4c-4.4,0-10.6,5.4-10.6,5.4c-4.5-4.7-6.5-11.4-6.5-12.9
		l-2.5-0.2c1.6,14.1,8.7,24.6,19.5,24.6C55.1,55.4,62.2,45,63.8,31H61.3z"/>
	<g>
		<path fill="#FFDAB9" d="M24.4,26.4l0-0.3c-2.2-2.2-4,0.3-3,3.6c1,3.4,1.2,4,2.2,7c1,3,2.5,1.3,2.5,1.3l0-0.2
			C25.1,34.3,24.5,30.4,24.4,26.4z"/>
		<path fill="#FFDAB9" d="M64.1,26.4l0-0.3c2.2-2.2,4,0.3,3,3.6c-1,3.4-1.2,4-2.2,7c-1,3-2.5,1.3-2.5,1.3l0-0.2
			C63.4,34.3,64,30.4,64.1,26.4z"/>
	</g>
	<path fill="#34495E" d="M44.2,0c-14.5,0-24.5,8.3-22,25.2l0,0.1c0.6-0.2,1.3,0,2,0.8l0,0.3c0,1.6,0.2,3.1,0.4,4.6h2.4
		c0,0-0.2-3.8,0.3-8.1c12.4,2,23.7-5.9,26.3-11.3c0.3,0.1,0,0,0,0c8.2,4.2,7.5,19.4,7.5,19.4h2.4c0.2-1.5,0.3-3,0.4-4.6l0-0.3
		c0.8-0.8,1.5-1,2-0.8l0-0.1C68.8,8.3,58.7,0,44.2,0z"/>
	<path fill="#FFDAB9" d="M44.2,55.4c-4.2,0-7.9-1.6-10.9-4.4v25.4h21.8V51C52.1,53.8,48.5,55.4,44.2,55.4z"/>
	<path fill="#EBEBEB" d="M59.9,62.4c0,0,4.1,2.3,8.6,3.4c0.9,0.2,1.9,0.4,2.8,0.5c1.2,0.1,2.4,0.2,3.7,0.4c4.5,0.6,9,2,10.4,8.3
		c1.7,8.1,3.1,30.2,3.1,30.2H44.2h0H0c0,0,1.4-22.1,3.1-30.2c1.3-6.3,5.9-7.7,10.4-8.3c1.3-0.2,2.5-0.3,3.7-0.4
		c0.9-0.1,1.9-0.3,2.8-0.5c4.5-1.1,8.6-3.4,8.6-3.4l10,9.3l5.6,3.4l5.6-3.4L59.9,62.4z"/>
	<ellipse fill="#FFE4C3" cx="44.2" cy="45.9" rx="5.6" ry="2.1"/>
	<polygon fill="#F5F5F5" points="33.4,54.5 30.5,55.9 24.7,75.5 38.6,71.7 33.4,59.3 	"/>
	<polygon fill="#F7941E" points="75,105.2 68.5,91.6 44.2,91.6 20,91.6 13.5,105.2 	"/>
	<path fill="#F9A141" d="M21.6,98.4c-1.8,0.3-3.5-1-3.7-2.8l-4.4-28.9c1.3-0.2,2.5-0.3,3.7-0.4c0.9-0.1,1.9-0.3,2.8-0.5l4.4,28.9
		C24.6,96.5,23.4,98.2,21.6,98.4z"/>
	<polygon fill="#F5F5F5" points="55.1,54.5 57.9,55.9 63.8,75.5 49.9,71.7 55.1,59.3 	"/>
	<circle fill="#FFFFFF" cx="20.9" cy="94.3" r="1.4"/>
	<path fill="#F9A141" d="M66.9,98.4c1.8,0.3,3.5-1,3.7-2.8L75,66.7c-1.3-0.2-2.5-0.3-3.7-0.4c-0.9-0.1-1.9-0.3-2.8-0.5l-4.4,28.9
		C63.9,96.5,65.1,98.2,66.9,98.4z"/>
	<circle fill="#FFFFFF" cx="67.6" cy="94.3" r="1.4"/>
	<rect x="43.5" y="75" fill="#C8C8C8" width="1.4" height="16.6"/>
	<circle fill="#C8C8C8" cx="40.8" cy="79.6" r="1.4"/>
	<circle fill="#C8C8C8" cx="40.8" cy="87.2" r="1.4"/>
</g>
</svg>
