<?xml version="1.0" encoding="utf-8"?>
<!-- Generator: Adobe Illustrator 19.0.1, SVG Export Plug-In . SVG Version: 6.00 Build 0)  -->
<svg version="1.1" id="Слой_1" xmlns="http://www.w3.org/2000/svg" xmlns:xlink="http://www.w3.org/1999/xlink" x="0px" y="0px"
	 width="93.5px" height="107.1px" viewBox="0 0 93.5 107.1" enable-background="new 0 0 93.5 107.1" xml:space="preserve">
<rect y="102" fill="#E84C3D" width="93.5" height="5.1"/>
<g>
	<path fill="#EBEBEB" d="M93.5,6.6v71.4c0,3.8-2.7,6.9-6,6.9H6c-3.3,0-6-3.1-6-6.9V6.6H93.5z"/>
	<path fill="#BEC5CB" d="M87.4,0c-3.3,0-6,3.1-6,6.9v71.4c0-3.8,2.7-6.9,6-6.9c3.3,0,6,3.1,6,6.9V6.9C93.5,3.1,90.8,0,87.4,0z"/>
	<path fill="#BEC5CB" d="M6,0c3.3,0,6,3.1,6,6.9v71.4c0-3.8-2.7-6.9-6-6.9s-6,3.1-6,6.9V6.9C0,3.1,2.7,0,6,0z"/>
	<g>
		<path fill="#2C3E50" d="M49.2,67.6h-4.9l-0.9-4.7c-0.7-0.1-1.5-0.3-2.2-0.6l-3.1,3.6l-4.2-2.5l1.5-4.5c-0.6-0.5-1.1-1-1.6-1.6
			l-4.4,1.5L27,54.5l3.5-3.2c-0.2-0.7-0.4-1.4-0.6-2.2l-4.6-0.9v-5l4.6-0.9c0.1-0.8,0.3-1.5,0.6-2.2L27,36.9l2.4-4.3l4.4,1.5
			c0.5-0.6,1-1.1,1.6-1.6L33.9,28l4.2-2.5l3.1,3.6c0.7-0.2,1.4-0.4,2.2-0.6l0.9-4.7h4.9l0.9,4.7c0.7,0.1,1.5,0.3,2.2,0.6l3.1-3.6
			l4.2,2.5l-1.5,4.5c0.6,0.5,1.1,1,1.6,1.6l4.4-1.5l2.4,4.3L63,40.1c0.2,0.7,0.4,1.4,0.6,2.2l4.6,0.9l0,5l-4.6,0.9
			c-0.1,0.7-0.3,1.5-0.6,2.2l3.5,3.2l-2.4,4.3l-4.4-1.5c-0.5,0.6-1,1.1-1.6,1.6l1.5,4.5l-4.2,2.5l-3.1-3.6c-0.7,0.2-1.4,0.4-2.2,0.6
			L49.2,67.6z M46.1,65.4h1.3l0.9-4.4l0.8-0.1c1.1-0.2,2.2-0.5,3.2-0.9l0.7-0.3l2.9,3.4l1.1-0.7l-1.4-4.2l0.6-0.5
			c0.9-0.7,1.6-1.5,2.3-2.4l0.5-0.6l4.2,1.4l0.6-1.1l-3.3-3l0.3-0.7c0.4-1,0.7-2.1,0.8-3.2l0.1-0.8l4.3-0.9l0-1.3l-4.3-0.9l-0.1-0.8
			c-0.2-1.1-0.4-2.2-0.8-3.2l-0.3-0.7l3.3-3l-0.6-1.1l-4.2,1.4l-0.5-0.6c-0.7-0.9-1.5-1.7-2.3-2.4l-0.6-0.5l1.4-4.2l-1.1-0.7
			l-2.9,3.4l-0.7-0.3c-1-0.4-2.1-0.7-3.2-0.9l-0.8-0.1l-0.9-4.4h-1.3l-0.9,4.4l-0.8,0.1c-1.1,0.2-2.2,0.5-3.2,0.9l-0.7,0.3l-2.9-3.4
			L36.6,29l1.4,4.2l-0.6,0.5c-0.9,0.7-1.6,1.5-2.3,2.4l-0.5,0.6l-4.2-1.4l-0.6,1.1l3.3,3l-0.3,0.7c-0.4,1-0.7,2.1-0.8,3.2l-0.1,0.8
			l-4.3,0.9v1.3l4.3,0.9l0.1,0.8c0.2,1.1,0.5,2.2,0.8,3.2l0.3,0.7l-3.3,3l0.6,1.1l4.2-1.4l0.5,0.6c0.7,0.9,1.5,1.7,2.3,2.4l0.6,0.5
			l-1.4,4.2l1.1,0.7l2.9-3.4l0.7,0.3c1,0.4,2.1,0.7,3.2,0.9l0.8,0.1L46.1,65.4z M46.7,55.2c-5.1,0-9.3-4.3-9.3-9.5
			c0-5.2,4.2-9.5,9.3-9.5c5.1,0,9.3,4.3,9.3,9.5C56.1,51,51.9,55.2,46.7,55.2z M46.7,38.5c-3.9,0-7.1,3.3-7.1,7.3
			c0,4,3.2,7.3,7.1,7.3c3.9,0,7.1-3.3,7.1-7.3C53.9,41.7,50.7,38.5,46.7,38.5z"/>
		<path fill="#2C3E50" d="M46.7,50.2c-2.4,0-4.4-2-4.4-4.5c0-2.5,2-4.5,4.4-4.5c2.4,0,4.4,2,4.4,4.5C51.1,48.2,49.2,50.2,46.7,50.2z
			 M46.7,43.5c-1.2,0-2.2,1-2.2,2.2c0,1.2,1,2.2,2.2,2.2c1.2,0,2.2-1,2.2-2.2C48.9,44.5,47.9,43.5,46.7,43.5z"/>
	</g>
</g>
<rect y="90.7" fill="#FD5342" width="93.5" height="16.4"/>
<g>
	<rect x="4.1" y="90.7" fill="#FFFFFF" width="2.2" height="5.1"/>
	<rect x="9.3" y="90.7" fill="#FFFFFF" width="2.2" height="2.5"/>
	<rect x="14.5" y="90.7" fill="#FFFFFF" width="2.2" height="5.1"/>
	<rect x="19.7" y="90.7" fill="#FFFFFF" width="2.2" height="2.5"/>
	<rect x="24.9" y="90.7" fill="#FFFFFF" width="2.2" height="5.1"/>
	<rect x="30.1" y="90.7" fill="#FFFFFF" width="2.2" height="2.5"/>
	<rect x="35.3" y="90.7" fill="#FFFFFF" width="2.2" height="5.1"/>
	<rect x="40.5" y="90.7" fill="#FFFFFF" width="2.2" height="2.5"/>
	<rect x="45.6" y="90.7" fill="#FFFFFF" width="2.2" height="5.1"/>
	<rect x="50.8" y="90.7" fill="#FFFFFF" width="2.2" height="2.5"/>
	<rect x="56" y="90.7" fill="#FFFFFF" width="2.2" height="5.1"/>
	<rect x="61.2" y="90.7" fill="#FFFFFF" width="2.2" height="2.5"/>
	<rect x="66.4" y="90.7" fill="#FFFFFF" width="2.2" height="5.1"/>
	<rect x="71.6" y="90.7" fill="#FFFFFF" width="2.2" height="2.5"/>
	<rect x="76.8" y="90.7" fill="#FFFFFF" width="2.2" height="5.1"/>
	<rect x="82" y="90.7" fill="#FFFFFF" width="2.2" height="2.5"/>
	<rect x="87.2" y="90.7" fill="#FFFFFF" width="2.2" height="5.1"/>
</g>
</svg>
