<?xml version="1.0" encoding="utf-8"?>
<!-- Generator: Adobe Illustrator 19.0.1, SVG Export Plug-In . SVG Version: 6.00 Build 0)  -->
<svg version="1.1" id="Слой_1" xmlns="http://www.w3.org/2000/svg" xmlns:xlink="http://www.w3.org/1999/xlink" x="0px" y="0px"
	 width="94.2px" height="105.8px" viewBox="0 0 94.2 105.8" enable-background="new 0 0 94.2 105.8" xml:space="preserve">
<g>
	<path fill="#EBEBEB" d="M84.1,13.7V102c0,1-0.4,1.9-1.1,2.6c-0.8,0.7-1.8,1.1-2.7,1.1H3.9c-1,0-2-0.4-2.7-1.1
		C0.4,103.9,0,103,0,102V3.7c0-1,0.4-1.9,1.1-2.6C1.9,0.4,2.9,0,3.9,0h66L84.1,13.7z"/>
	<path fill="#BEC5CB" d="M84.1,13.7H73.8c-1,0-2-0.4-2.7-1.1c-0.8-0.7-1.1-1.7-1.1-2.6V0L84.1,13.7z"/>
	<path fill="#FD5342" d="M42.1,67.2c-15.3,0-27.8-12-27.8-26.8s12.5-26.8,27.8-26.8c15.3,0,27.8,12,27.8,26.8S57.4,67.2,42.1,67.2z
		 M42.1,19.1c-12.2,0-22.2,9.6-22.2,21.3s10,21.3,22.2,21.3s22.2-9.6,22.2-21.3S54.3,19.1,42.1,19.1z"/>
	<path fill="#FD5342" d="M42.1,56.4c-9.1,0-16.6-7.1-16.6-15.9s7.4-15.9,16.6-15.9s16.6,7.1,16.6,15.9S51.2,56.4,42.1,56.4z
		 M42.1,29.9c-6,0-10.9,4.7-10.9,10.5S36,51,42.1,51S53,46.2,53,40.4S48.1,29.9,42.1,29.9z"/>
	<ellipse fill="#FD5342" cx="42.1" cy="40.4" rx="5.3" ry="5.1"/>
	<g>
		<rect x="51.7" y="35.1" fill="#FECE66" width="32.4" height="3.6"/>
		<rect x="51.7" y="38.7" fill="#F5B540" width="32.4" height="3.6"/>
		<rect x="51.7" y="42.2" fill="#ECA334" width="32.4" height="3.6"/>
		<polygon fill="#F2F2F2" points="51.7,45.8 45.3,42.2 45.3,38.7 51.7,35.1 		"/>
		<polygon fill="#CCCBCA" points="51.7,45.8 51.7,42.2 45.3,41 45.3,42.2 		"/>
		<polygon fill="#495057" points="45.3,42.2 42.1,40.4 45.3,38.7 		"/>
		<rect x="84.1" y="42.2" fill="#E6E5E5" width="3.7" height="3.6"/>
		<rect x="84.1" y="35.1" fill="#FFFFFF" width="3.7" height="7.1"/>
		<path fill="#343B43" d="M88.7,45.8h-0.9v-3.6l0.9,0c1.4,0,2.8-0.5,3.9-1.6c0.6-0.6,1-1.3,1.3-2c0.2,0.6,0.3,1.2,0.3,1.8
			c0,1.4-0.5,2.7-1.6,3.8C91.5,45.3,90.1,45.8,88.7,45.8z"/>
		<path fill="#495057" d="M88.7,42.2l-0.9,0v-7.1l0.9,0c1.4,0,2.8,0.5,3.9,1.6c0.6,0.6,1,1.3,1.3,2c-0.3,0.7-0.7,1.4-1.3,2
			C91.5,41.7,90.1,42.2,88.7,42.2z"/>
	</g>
	<g>
		<rect x="14.2" y="92.3" fill="#BEC5CB" width="27.8" height="4.2"/>
		<rect x="14.2" y="83.9" fill="#BEC5CB" width="55.6" height="4.2"/>
		<rect x="14.2" y="75.6" fill="#BEC5CB" width="55.6" height="4.2"/>
	</g>
</g>
</svg>
