<?xml version="1.0" encoding="utf-8"?>
<!-- Generator: Adobe Illustrator 19.0.1, SVG Export Plug-In . SVG Version: 6.00 Build 0)  -->
<svg version="1.1" id="Слой_1" xmlns="http://www.w3.org/2000/svg" xmlns:xlink="http://www.w3.org/1999/xlink" x="0px" y="0px"
	 width="102.7px" height="102.7px" viewBox="0 0 102.7 102.7" enable-background="new 0 0 102.7 102.7" xml:space="preserve">
<g>
	<g>
		<g>
			<polygon fill="#F7941E" points="55.2,0 47.4,0 45.2,11.3 57.5,11.3 			"/>
			<polygon fill="#F7941E" points="29,4.9 22.3,8.8 26,19.8 36.7,13.6 			"/>
			<polygon fill="#F7941E" points="8.8,22.3 4.9,29 13.6,36.7 19.8,26 			"/>
			<polygon fill="#F7941E" points="0,47.5 0,55.2 11.3,57.5 11.3,45.2 			"/>
			<polygon fill="#F7941E" points="4.9,73.6 8.8,80.4 19.8,76.7 13.6,66 			"/>
			<polygon fill="#F7941E" points="22.3,93.9 29,97.8 36.7,89.1 26,82.9 			"/>
			<polygon fill="#F7941E" points="47.4,102.7 55.2,102.7 57.5,91.4 45.2,91.4 			"/>
			<polygon fill="#F7941E" points="73.6,97.8 80.4,93.9 76.7,82.9 66,89.1 			"/>
			<polygon fill="#F7941E" points="93.9,80.4 97.8,73.6 89.1,66 82.9,76.7 			"/>
			<polygon fill="#F7941E" points="102.7,55.2 102.7,47.5 91.4,45.2 91.4,57.5 			"/>
			<polygon fill="#F7941E" points="97.8,29 93.9,22.3 82.9,26 89.1,36.7 			"/>
			<polygon fill="#F7941E" points="80.4,8.8 73.6,4.9 66,13.6 76.7,19.8 			"/>
		</g>
	</g>
	<path fill="#2C3E50" d="M51.3,10.9C29,10.9,10.9,29,10.9,51.3c0,22.4,18.1,40.5,40.5,40.5c22.4,0,40.5-18.1,40.5-40.5
		C91.8,29,73.7,10.9,51.3,10.9z"/>
	<path fill="#FFFFFF" d="M82.1,51.3c0,17-13.8,30.8-30.8,30.8c-17,0-30.8-13.8-30.8-30.8s13.8-30.8,30.8-30.8
		C68.4,20.5,82.1,34.3,82.1,51.3z"/>
	<path fill="#BEC5CB" d="M71.7,51.3c0,11.3-9.1,20.4-20.4,20.4C40.1,71.7,31,62.6,31,51.3S40.1,31,51.3,31
		C62.6,31,71.7,40.1,71.7,51.3z"/>
	<path fill="#343B43" d="M61,51.3c0,5.3-4.3,9.6-9.6,9.6c-5.3,0-9.6-4.3-9.6-9.6c0-5.3,4.3-9.6,9.6-9.6C56.7,41.7,61,46,61,51.3z"/>
	<circle fill="#FFFFFF" cx="44.5" cy="44.5" r="5"/>
	<circle fill="#FFFFFF" cx="44.5" cy="53.3" r="1.8"/>
</g>
</svg>
