<?xml version="1.0" encoding="utf-8"?>
<!-- Generator: Adobe Illustrator 19.0.1, SVG Export Plug-In . SVG Version: 6.00 Build 0)  -->
<svg version="1.1" id="Слой_1" xmlns="http://www.w3.org/2000/svg" xmlns:xlink="http://www.w3.org/1999/xlink" x="0px" y="0px"
	 width="148.9px" height="94.8px" viewBox="0 0 148.9 94.8" enable-background="new 0 0 148.9 94.8" xml:space="preserve">
<g>
	<path fill="#EBEBEB" d="M122.8,55.2l-7-38.7C105.3,18.4,95.2,11,93.2,0L3.3,16.2c-1,0.2-1.9,0.8-2.6,1.7c-0.6,0.9-0.8,2.1-0.6,3.1
		l12.7,70.4c0.2,1,0.8,2,1.7,2.7c0.9,0.7,2,0.9,3,0.7l89.9-16.2C105.3,67.6,112.3,57.1,122.8,55.2z M101,39.2c-0.5-2.8,1.3-5.5,4-6
		c2.7-0.5,5.3,1.4,5.8,4.2c0.5,2.8-1.3,5.5-4,6C104.1,43.9,101.5,42,101,39.2z"/>
	<g>
		<polygon fill="#2C3E50" points="9.3,28.9 8.3,23.4 13.5,22.4 14.1,25.6 11.9,26 12.3,28.3 		"/>
		<path fill="#2C3E50" d="M21.7,24.2l-0.6-3.1l7.6-1.4l0.6,3.1L21.7,24.2z M36.9,21.5l-0.6-3.1l7.6-1.4l0.6,3.1L36.9,21.5z M52,18.8
			l-0.6-3.1l7.6-1.4l0.6,3.1L52,18.8z M67.2,16l-0.6-3.1l7.6-1.4l0.6,3.1L67.2,16z"/>
		<polygon fill="#2C3E50" points="82.4,13.3 81.8,10.2 87.1,9.2 88.1,14.7 85,15.2 84.6,12.9 		"/>
		<path fill="#2C3E50" d="M93,59.7l-1.3-7.4l3-0.5l1.3,7.4L93,59.7z M90.4,44.9L89,37.5l3-0.5l1.3,7.4L90.4,44.9z M87.7,30.1
			l-1.3-7.4l3-0.5l1.3,7.4L87.7,30.1z"/>
		<polygon fill="#2C3E50" points="93.1,73 92.5,69.9 94.8,69.5 94.4,67.1 97.4,66.6 98.4,72.1 		"/>
		<path fill="#2C3E50" d="M32.4,84l-0.6-3.1l7.6-1.4l0.6,3.1L32.4,84z M47.6,81.2L47,78.1l7.6-1.4l0.6,3.1L47.6,81.2z M62.8,78.5
			l-0.6-3.1l7.6-1.4l0.6,3.1L62.8,78.5z M77.9,75.8l-0.6-3.1l7.6-1.4l0.6,3.1L77.9,75.8z"/>
		<polygon fill="#2C3E50" points="19.6,86.3 18.6,80.8 21.6,80.2 22,82.6 24.3,82.2 24.9,85.3 		"/>
		<path fill="#2C3E50" d="M17.3,73.4l-1.3-7.4l3-0.5l1.3,7.4L17.3,73.4z M14.6,58.5l-1.3-7.4l3-0.5l1.3,7.4L14.6,58.5z M11.9,43.7
			l-1.3-7.4l3-0.5l1.3,7.4L11.9,43.7z"/>
	</g>
	
		<ellipse transform="matrix(0.1771 0.9842 -0.9842 0.1771 90.8679 -13.2014)" fill="#E84C3D" cx="53.3" cy="47.7" rx="21.6" ry="20.7"/>
	<g>
		<g>
			<polygon fill="#FECE30" points="47.2,58.9 44.5,57.2 59.5,36.6 62.1,38.3 			"/>
			<g>
				<path fill="#FECE30" d="M60.8,56.9C58,57.4,55.4,55.6,55,53c-0.5-2.6,1.4-5.2,4.1-5.7c2.7-0.5,5.4,1.2,5.8,3.9
					C65.4,53.9,63.5,56.4,60.8,56.9z M59.6,50.4c-1,0.2-1.7,1.1-1.5,2.1c0.2,1,1.1,1.6,2.1,1.4c1-0.2,1.7-1.1,1.5-2.1
					C61.6,50.8,60.6,50.2,59.6,50.4z"/>
				<path fill="#FECE30" d="M47.6,48.1c-2.7,0.5-5.4-1.2-5.8-3.9c-0.5-2.6,1.4-5.2,4.1-5.7c2.7-0.5,5.4,1.2,5.8,3.9
					C52.2,45.1,50.3,47.6,47.6,48.1z M46.4,41.6c-1,0.2-1.7,1.1-1.5,2.1c0.2,1,1.1,1.6,2.2,1.4c1-0.2,1.7-1.1,1.5-2.1
					C48.4,42.1,47.4,41.4,46.4,41.6z"/>
			</g>
		</g>
	</g>
	<path fill="#CCCBCA" d="M111.5,37.3c-0.6-3.3-3.6-5.4-6.7-4.9c-3.1,0.6-5.2,3.7-4.6,6.9c0.6,3.3,3.6,5.4,6.7,4.9
		C110.1,43.6,112.1,40.5,111.5,37.3z M102.1,39c-0.4-2.2,1-4.2,3.1-4.6c2.1-0.4,4.1,1.1,4.5,3.3c0.4,2.2-1,4.2-3.1,4.6
		C104.5,42.6,102.5,41.1,102.1,39z"/>
	<g>
		<g>
			<path fill="#343B43" d="M106.1,39.3l-0.4-2l10.1-1.8c2.3-0.4,4.6,0.1,6.5,1.5c1.9,1.4,3.2,3.4,3.6,5.8l3.7,20.5l-1.9,0.3
				L124,43.1c-0.3-1.8-1.3-3.4-2.8-4.5c-1.5-1.1-3.3-1.5-5-1.2L106.1,39.3z"/>
			<path fill="#343B43" d="M127.7,63.6l1.9-0.3c0.9,5,5.5,8.3,10.2,7.4c4.8-0.9,7.9-5.6,7-10.5c-0.9-5-5.5-8.3-10.2-7.4l-0.4-2
				c5.8-1,11.4,3,12.5,9.1c1.1,6-2.7,11.8-8.5,12.8C134.4,73.7,128.8,69.7,127.7,63.6z"/>
			
				<rect x="128.5" y="46" transform="matrix(0.1771 0.9842 -0.9842 0.1771 158.7305 -83.8728)" fill="#343B43" width="2" height="13.9"/>
			
				<ellipse transform="matrix(0.1771 0.9842 -0.9842 0.1771 124.8175 -72.7258)" fill="#343B43" cx="105.9" cy="38.3" rx="1" ry="1"/>
		</g>
	</g>
</g>
</svg>
