<?xml version="1.0" encoding="utf-8"?>
<!-- Generator: Adobe Illustrator 19.0.1, SVG Export Plug-In . SVG Version: 6.00 Build 0)  -->
<svg version="1.1" id="Слой_1" xmlns="http://www.w3.org/2000/svg" xmlns:xlink="http://www.w3.org/1999/xlink" x="0px" y="0px"
	 width="99.7px" height="99.7px" viewBox="0 0 99.7 99.7" enable-background="new 0 0 99.7 99.7" xml:space="preserve">
<g>
	<path fill="#2C3E50" d="M49.8,0C22.3,0,0,22.3,0,49.8c0,27.5,22.3,49.8,49.8,49.8c27.5,0,49.9-22.3,49.9-49.8
		C99.7,22.3,77.4,0,49.8,0z"/>
	<path fill="#FFFFFF" d="M91.2,49.8c0,22.8-18.5,41.4-41.4,41.4C27,91.2,8.5,72.7,8.5,49.8C8.5,27,27,8.5,49.8,8.5
		C72.7,8.5,91.2,27,91.2,49.8z"/>
	<path fill="#E84C3D" d="M49.9,8.5v41.4h41.4C91.2,27,72.7,8.5,49.9,8.5z"/>
	<rect x="47.5" y="26" fill="#48647C" width="4.7" height="18.7"/>
	<rect x="55" y="47.5" fill="#48647C" width="18.7" height="4.7"/>
	<circle fill="#48647C" cx="49.8" cy="49.8" r="8.7"/>
	<path fill="#FFFFFF" d="M53.8,49.8c0,2.2-1.8,4-4,4c-2.2,0-4-1.8-4-4c0-2.2,1.8-4,4-4C52,45.9,53.8,47.6,53.8,49.8z"/>
	<path fill="#E84C3D" d="M52.2,49.8c0,1.3-1.1,2.3-2.3,2.3c-1.3,0-2.3-1.1-2.3-2.3c0-1.3,1-2.3,2.3-2.3
		C51.1,47.5,52.2,48.5,52.2,49.8z"/>
	<g>
		<path fill="#2C3E50" d="M49.8,17c-1.3,0-2.3-1-2.3-2.3c0-1.3,1.1-2.3,2.3-2.3c1.3,0,2.3,1,2.3,2.3C52.2,16,51.1,17,49.8,17z"/>
		<path fill="#2C3E50" d="M33.4,21.4c-1.1,0.6-2.5,0.3-3.2-0.9c-0.7-1.1-0.3-2.6,0.9-3.2c1.1-0.6,2.5-0.3,3.2,0.9
			C34.9,19.3,34.6,20.8,33.4,21.4z"/>
		<path fill="#2C3E50" d="M21.4,33.4c-0.6,1.1-2.1,1.5-3.2,0.9c-1.1-0.6-1.5-2.1-0.9-3.2c0.6-1.1,2.1-1.5,3.2-0.9
			C21.7,30.9,22.1,32.3,21.4,33.4z"/>
		<path fill="#2C3E50" d="M17,49.8c0,1.3-1,2.3-2.3,2.3c-1.3,0-2.3-1.1-2.3-2.3c0-1.3,1-2.3,2.3-2.3C16,47.5,17,48.6,17,49.8z"/>
		<path fill="#2C3E50" d="M21.4,66.3c0.6,1.1,0.3,2.6-0.9,3.2c-1.1,0.6-2.6,0.3-3.2-0.9c-0.6-1.1-0.3-2.6,0.9-3.2
			C19.3,64.7,20.8,65.1,21.4,66.3z"/>
		<path fill="#2C3E50" d="M33.4,78.3c1.1,0.6,1.5,2.1,0.9,3.2c-0.6,1.1-2.1,1.5-3.2,0.9c-1.1-0.6-1.5-2.1-0.9-3.2
			C30.9,78,32.3,77.6,33.4,78.3z"/>
		<path fill="#2C3E50" d="M49.8,82.7c1.3,0,2.3,1,2.3,2.3c0,1.3-1,2.3-2.3,2.3c-1.3,0-2.3-1-2.3-2.3C47.5,83.7,48.5,82.7,49.8,82.7z
			"/>
		<path fill="#2C3E50" d="M66.3,78.3c1.1-0.7,2.5-0.3,3.2,0.9c0.6,1.1,0.3,2.6-0.8,3.2c-1.1,0.6-2.6,0.3-3.2-0.9
			C64.7,80.3,65.1,78.9,66.3,78.3z"/>
		<path fill="#2C3E50" d="M78.3,66.3c0.6-1.1,2.1-1.5,3.2-0.9c1.1,0.6,1.5,2.1,0.9,3.2c-0.6,1.1-2.1,1.5-3.2,0.9
			C78,68.8,77.6,67.4,78.3,66.3z"/>
		<path fill="#2C3E50" d="M82.7,49.8c0-1.3,1-2.3,2.3-2.3c1.3,0,2.3,1,2.3,2.3c0,1.3-1,2.3-2.3,2.3C83.7,52.2,82.7,51.1,82.7,49.8z"
			/>
		<path fill="#2C3E50" d="M78.3,33.4c-0.6-1.1-0.3-2.5,0.9-3.2c1.1-0.6,2.6-0.3,3.2,0.9c0.6,1.1,0.3,2.6-0.8,3.2
			C80.3,34.9,78.9,34.6,78.3,33.4z"/>
		<path fill="#2C3E50" d="M66.3,21.4c-1.1-0.6-1.5-2.1-0.9-3.2c0.7-1.1,2.1-1.5,3.2-0.9c1.1,0.6,1.5,2.1,0.9,3.2
			C68.8,21.7,67.4,22.1,66.3,21.4z"/>
	</g>
</g>
</svg>
