<?xml version="1.0" encoding="utf-8"?>
<!-- Generator: Adobe Illustrator 19.0.1, SVG Export Plug-In . SVG Version: 6.00 Build 0)  -->
<svg version="1.1" id="Слой_1" xmlns="http://www.w3.org/2000/svg" xmlns:xlink="http://www.w3.org/1999/xlink" x="0px" y="0px"
	 width="81.3px" height="104.8px" viewBox="0 0 81.3 104.8" enable-background="new 0 0 81.3 104.8" xml:space="preserve">
<g>
	<polygon fill="#E84C3D" points="21.7,58 3.7,95.8 17.7,90.8 22.6,104.8 40.6,67 	"/>
	<polygon fill="#2C3E50" points="59.6,58 77.6,95.8 63.6,90.8 58.7,104.8 40.6,67 	"/>
	<path fill="#FECE30" d="M38.1,2.9c1.4,0.9,3.7,0.9,5.1,0l3.7-2.4C48.3-0.4,50.1,0,51,1.4l2.4,3.7c0.9,1.4,3,2.3,4.6,2.1l4.4-0.7
		c1.7-0.3,3.2,0.8,3.4,2.5l0.6,4.4c0.2,1.7,1.8,3.4,3.4,3.8l4.3,1.1c1.6,0.4,2.6,2.1,2.1,3.7l-1.2,4.2c-0.4,1.6,0.3,3.8,1.6,4.8
		l3.5,2.8c1.3,1,1.5,2.9,0.4,4.2l-2.8,3.4c-1.1,1.3-1.3,3.6-0.5,5l2.1,3.9c0.8,1.5,0.2,3.3-1.3,4.1l-4,2c-1.5,0.7-2.6,2.7-2.5,4.4
		l0.3,4.4c0.1,1.7-1.2,3.1-2.9,3.2l-4.4,0.2c-1.7,0.1-3.5,1.4-4.1,3l-1.5,4.1c-0.6,1.6-2.3,2.4-3.9,1.7l-4.1-1.6
		c-1.6-0.6-3.8-0.1-5,1.1L42.8,80c-1.2,1.2-3.1,1.2-4.3,0l-3.1-3.2c-1.2-1.2-3.4-1.7-5-1.1l-4.1,1.6c-1.6,0.6-3.3-0.2-3.9-1.7
		l-1.5-4.1c-0.6-1.6-2.4-2.9-4.1-3l-4.4-0.2c-1.7-0.1-3-1.5-2.9-3.2l0.3-4.4c0.1-1.7-1-3.6-2.5-4.4l-4-2c-1.5-0.7-2.1-2.6-1.3-4.1
		L4,46.4c0.8-1.5,0.5-3.8-0.5-5L0.7,38c-1.1-1.3-0.9-3.2,0.4-4.2L4.6,31c1.3-1,2-3.2,1.6-4.8L5,21.9c-0.4-1.6,0.5-3.3,2.1-3.7
		l4.3-1.1c1.6-0.4,3.2-2.1,3.4-3.8L15.4,9c0.2-1.7,1.8-2.8,3.4-2.5l4.4,0.7c1.7,0.3,3.7-0.6,4.6-2.1l2.4-3.7C31.2,0,33-0.4,34.4,0.5
		L38.1,2.9z"/>
	<circle fill="#FFFFFF" cx="40.6" cy="40.5" r="29.4"/>
	<polygon fill="#BEC5CB" points="40.6,24.5 45.8,35 57.4,36.7 49,44.9 51,56.4 40.6,51 30.3,56.4 32.3,44.9 23.9,36.7 35.5,35 	"/>
</g>
</svg>
