<?xml version="1.0" encoding="utf-8"?>
<!-- Generator: Adobe Illustrator 19.0.1, SVG Export Plug-In . SVG Version: 6.00 Build 0)  -->
<svg version="1.1" id="Слой_1" xmlns="http://www.w3.org/2000/svg" xmlns:xlink="http://www.w3.org/1999/xlink" x="0px" y="0px"
	 width="86.8px" height="102.9px" viewBox="0 0 86.8 102.9" enable-background="new 0 0 86.8 102.9" xml:space="preserve">
<g>
	<g>
		<path fill="#5D6D7E" d="M67.1,84.9H32.7c-0.8,0-1.5-0.7-1.5-1.5v-4.8c0-0.8,0.7-1.5,1.5-1.5h34.4c0.8,0,1.5,0.7,1.5,1.5v4.8
			C68.6,84.3,67.9,84.9,67.1,84.9z"/>
		<path fill="#9EA7B2" d="M49.9,102.9L49.9,102.9c-7.4,0-13.9-5.5-16-13.5l-1.2-4.4H67l-1.2,4.4C63.8,97.4,57.3,102.9,49.9,102.9z"
			/>
		<rect x="40.4" y="9.2" fill="#9EA7B2" width="19.1" height="37.4"/>
		<polygon fill="#5D6D7E" points="59.5,9.2 40.4,9.2 33.1,2.1 66.8,2.1 		"/>
		<path fill="#BEC5CB" d="M67.4,2.1h-35c-1.1,0-2.1-0.9-2.1-2.1v0h39.1v0C69.5,1.2,68.6,2.1,67.4,2.1z"/>
		<path fill="#5D6D7E" d="M64.1,49.3H35.8v-5.5c0-1.3,1.1-2.4,2.4-2.4h23.5c1.3,0,2.4,1.1,2.4,2.4V49.3z"/>
		<path fill="#BEC5CB" d="M67,77.2H32.8l1.7-26.7c0-0.7,0.6-1.2,1.3-1.2H64c0.7,0,1.3,0.5,1.3,1.2L67,77.2z"/>
		<rect x="40.4" y="42.1" fill="#D6DBDF" width="2.2" height="6.6"/>
		<rect x="48.8" y="42.1" fill="#D6DBDF" width="2.2" height="6.6"/>
		<rect x="57.3" y="42.1" fill="#D6DBDF" width="2.2" height="6.6"/>
		<g>
			<rect x="48.9" y="77.8" fill="#D6DBDF" width="2" height="6.6"/>
			<rect x="56.5" y="77.8" fill="#D6DBDF" width="2" height="6.6"/>
			<rect x="41.3" y="77.8" fill="#D6DBDF" width="2" height="6.6"/>
			<rect x="33.7" y="77.8" fill="#D6DBDF" width="2" height="6.6"/>
			<rect x="64.2" y="77.8" fill="#D6DBDF" width="2" height="6.6"/>
		</g>
		<path fill="#9EA7B2" d="M79.3,51.2v24.3c-0.1,0.1-0.3,0.2-0.4,0.3H67.1c-0.9-0.6-1.8-1.3-2.5-2.1c-2.5-2.7-4.1-6.5-4.1-10.8
			c0-4.3,1.6-8.1,4.1-10.8c0.3-0.3,0.6-0.6,0.9-0.9H79.3z"/>
		<path fill="#5D6D7E" d="M78.9,77.4V49.1h5.5c1.3,0,2.4,1.1,2.4,2.4V75c0,1.3-1.1,2.4-2.4,2.4H78.9z"/>
		<rect x="79.6" y="53.7" fill="#D6DBDF" width="6.6" height="2.2"/>
		<rect x="79.6" y="62.1" fill="#D6DBDF" width="6.6" height="2.2"/>
		<rect x="79.6" y="70.6" fill="#D6DBDF" width="6.6" height="2.2"/>
	</g>
	<g>
		<path fill="#F7941E" d="M9.1,36l0.7,60.7c0,3.4,2.8,6.2,6.2,6.2c3.4,0,6.2-2.8,6.2-6.2v0c0-0.3,0-0.5-0.1-0.8
			c-0.4-6.1-3.2-45.5-4-60L9.1,36z M17.8,93.3c1.9,1,2.6,3.3,1.7,5.2c-1,1.9-3.3,2.6-5.2,1.7c-1.9-1-2.6-3.3-1.7-5.2
			C13.6,93.1,15.9,92.3,17.8,93.3z"/>
		<path fill="#34495E" d="M24.3,19.5l-0.7,2.3L23.5,22l-0.7-0.5l-0.1,0l-0.1,0.2l-0.6-0.4l-0.1,0C20,24.1,18,27.9,18,31.1
			c0,0.8,0.1,2.5,0.2,4.9l-9,0.1l-0.1-4.9c0,0-2.5-8.4-5.2-11.3c-0.1-0.1-0.3-0.3-0.4-0.4c-0.3-0.2-0.5-0.4-0.6-0.6
			c-3-3.4-3.8-8.4-1.6-12.7C3.2,2.5,6.8,0.3,10.6,0L7.4,8.5C7.2,9.1,7.5,9.7,8.1,9.9l5.9,2.2c0.6,0.2,1.3-0.1,1.5-0.7l3.3-8.8
			c3.5,3,4.9,7.8,3.4,12.2c1.3,0.4,2.5,0.8,2.5,0.8l0.4,1.1c0,0-0.6,0.7-1.4,1.8l0.2,0.1C24.2,18.8,24.4,19.1,24.3,19.5z"/>
		<g>
			<ellipse transform="matrix(0.9075 0.42 -0.42 0.9075 9.8848 -3.5281)" fill="#85929E" cx="13" cy="20.7" rx="0.4" ry="1.4"/>
			<ellipse transform="matrix(0.9075 0.42 -0.42 0.9075 10.2303 -3.9813)" fill="#85929E" cx="14.2" cy="21.2" rx="0.4" ry="1.4"/>
			<ellipse transform="matrix(0.9075 0.42 -0.42 0.9075 10.574 -4.4344)" fill="#85929E" cx="15.4" cy="21.8" rx="0.4" ry="1.4"/>
			
				<ellipse transform="matrix(0.9076 0.4199 -0.4199 0.9076 10.9176 -4.8873)" fill="#85929E" cx="16.6" cy="22.4" rx="0.4" ry="1.4"/>
			<ellipse transform="matrix(0.9075 0.42 -0.42 0.9075 11.2633 -5.3407)" fill="#85929E" cx="17.8" cy="22.9" rx="0.4" ry="1.4"/>
		</g>
	</g>
</g>
</svg>
