<?xml version="1.0" encoding="utf-8"?>
<!-- Generator: Adobe Illustrator 19.0.1, SVG Export Plug-In . SVG Version: 6.00 Build 0)  -->
<svg version="1.1" id="Слой_1" xmlns="http://www.w3.org/2000/svg" xmlns:xlink="http://www.w3.org/1999/xlink" x="0px" y="0px"
	 width="86.9px" height="113.7px" viewBox="0 0 86.9 113.7" enable-background="new 0 0 86.9 113.7" xml:space="preserve">
<g>
	<path fill="#34495E" d="M78.5,39.3c0,0,0-0.1,0-0.1c0,0,0-0.1,0-0.1c0,0,0,0,0-0.1c0-0.1,0-0.1-0.1-0.2c0,0,0,0,0,0
		c-0.2-0.3-0.5-0.5-0.8-0.5c-0.1,0-0.2,0-0.3,0l-2,0v-6.4h0.3c1.1,0,2-0.9,2-1.9s-0.9-1.9-2-1.9H7.3c-1.1,0-2,0.9-2,1.9
		s0.9,1.9,2,1.9h0.3v6.4h-2c-0.7,0-1.3,0.6-1.3,1.3v4c0,0.7,0.6,1.3,1.3,1.3h2v64.9H7.3c-1.1,0-2,0.9-2,1.9c0,1.1,0.9,1.9,2,1.9
		h68.3c1.1,0,2-0.9,2-1.9c0-1.1-0.9-1.9-2-1.9h-0.3V44.9l2,0c0.7,0,1.3-0.6,1.3-1.3v-4C78.6,39.5,78.6,39.4,78.5,39.3z"/>
	<path fill="#E84C3D" d="M28.5,104.7c0,1.2,1,2.2,2.2,2.2c1.2,0,2.2-1,2.2-2.2s-2.2-4.2-2.2-4.2S28.5,103.5,28.5,104.7z"/>
	<path fill="#E84C3D" d="M44.6,74.5c0,2,1.7,3.7,3.8,3.7c2.1,0,3.8-1.7,3.8-3.7c0-2-3.8-7-3.8-7S44.6,72.4,44.6,74.5z"/>
	<path fill="#85929E" d="M81.5,40h-2.9v3.1h0.8c0.3,0,0.5,0.2,0.5,0.4c-0.1,10-4.2,20.3-11.4,28.2c-7.5,8.3-17,12.9-27,12.9
		c-9.9,0-19.5-4.6-27-12.9C7.4,63.8,3.3,53.6,3.1,43.6c0-0.3,0.2-0.5,0.5-0.5h0.8V40H1.5C0.7,40,0,40.7,0,41.5v1.6
		c0,1.2,0,2.3,0.2,3.5C1.8,66,17.1,84.5,36.4,87.3c1.6,0.2,8.7,0.2,10.5-0.1c19.2-3,34.2-21.3,35.9-40.6c0.1-0.8,0.1-3.4,0.1-5.1
		C82.9,40.7,82.3,40,81.5,40z"/>
	<polygon fill="#E84C3D" points="49.3,82.1 49.3,82.8 33.7,82.8 33.7,82.1 31.5,82.1 31.5,88.2 33.7,88.2 33.7,87.5 49.3,87.5 
		49.3,88.2 51.4,88.2 51.4,82.1 	"/>
	<path fill="#E84C3D" d="M25.7,45.7c2.4,0.1,2.5-10.3,5.4-10.5c2.2-0.1,0.9,19.3,3.6,19.3c1.5,0,1.9-6.8,3-6.7
		C40.1,48,40.7,61,42.5,61c2.5-0.1,2.7-3.6,2.7-4.5c0,0,0.8-8.3,2.7-8.4c0.8-0.1,0.6,3.6,2.4,3.6c1.6,0,2.2-3.1,2.2-4.4
		c0,0,0.4-10.2,2.1-13.1c0.8-1.4,1.3,7.6,2.3,7.5c1.4-0.2,0.9-5,0.9-6.6c0,0-0.1-4.6,1.1-4.6c1.3-0.1,0.9,3.9,2,3.9
		c1.2,0,1.4-2.4,1.4-3.2l1.1-3.2L19.6,28C19.6,28,21.7,45.6,25.7,45.7z"/>
	<path fill="#E84C3D" d="M60.7,34.4c0.8,0,1.2-1.1,1.3-2.1h-2.3C60,33.4,60.2,34.4,60.7,34.4z"/>
	<path fill="#E86C4F" d="M59.6,32c0,0.1,0,0.1,0,0.2c0,0.1,0.1,0.1,0.2,0.1h2.3c0.1,0,0.1-0.1,0.2-0.1c0-0.1,0-0.1,0-0.2
		c0-0.1-0.1-0.2-0.2-0.2h-2.4C59.6,31.8,59.6,31.9,59.6,32z"/>
	<g>
		<polygon fill="#FFFFFF" points="55.9,90.9 54,113.7 58.1,113.7 58.3,102 58.5,113.7 59.3,113.7 59.5,96.1 59.7,106.7 59.7,102 
			59.9,113.7 61.9,113.7 62.1,97.2 62.3,110.2 62.3,109.3 62.5,113.7 64.8,113.7 64.9,112.1 64.9,113.2 65,97.7 65.1,108.2 
			65.2,105.3 65.3,113.7 66.9,113.7 67.2,102 67.3,107.8 67.4,102 67.5,110.5 67.6,109.3 67.7,112.6 67.8,113.7 68.5,113.7 
			68.6,111.5 68.7,112.7 68.9,102 69.1,113.7 71,113.7 71.2,102 71.4,113.7 72.2,113.7 72.4,96.1 72.5,106.7 72.6,102 72.8,113.7 
			74.8,113.7 75,97.2 75.1,110.2 75.2,109.3 75.4,113.7 77.7,113.7 77.8,112.1 77.8,113.2 77.9,97.7 78,108.2 78,105.3 78.1,113.7 
			79.8,113.7 80,102 80.1,107.8 80.2,102 80.4,110.5 80.4,109.3 80.6,112.6 80.7,113.7 81.4,113.7 81.5,111.5 81.6,112.7 81.8,102 
			82,113.7 86.9,113.7 85,90.9 		"/>
		<g>
			<path fill="#E84C3D" d="M81.9,106.6c1.5,0.2,3,0.4,4.5,0.5l0,0.2l0.5,6.3H82l-0.1-6.9L81.9,106.6z"/>
			<path fill="#E84C3D" d="M80.3,106.4c0.5,0.1,0.9,0.1,1.4,0.2l0,0.2l-0.1,5.9l-0.1-1.2l-0.1,2.2h-0.7l-0.1-1l-0.2-3.3l-0.1,1.2
				l-0.1-3.9L80.3,106.4z"/>
			<path fill="#E84C3D" d="M80.1,106.3C80.1,106.3,80.1,106.3,80.1,106.3l0,0.2l0,1.3l0-1.3L80.1,106.3z"/>
			<path fill="#E84C3D" d="M78,106c0.6,0.1,1.3,0.2,1.9,0.4l0,0.2l-0.1,7.1h-1.7l-0.1-7.5L78,106z"/>
			<path fill="#E84C3D" d="M78,105.9C78,105.9,78,106,78,105.9l0,0.2l0,2l0-2L78,105.9z"/>
			<path fill="#E84C3D" d="M75.1,105.2c0.8,0.3,1.8,0.5,2.8,0.7v0.2l0,7.1l-0.1-1.1l-0.1,1.5h-2.3l-0.2-4.4l0,0.9l-0.1-4.8
				L75.1,105.2z"/>
			<path fill="#E84C3D" d="M72.7,104.2c0.6,0.3,1.4,0.6,2.2,0.9l0,0.2l-0.1,8.3h-1.9l-0.2-9.2L72.7,104.2z"/>
			<path fill="#E84C3D" d="M72.5,104.1C72.5,104.2,72.6,104.2,72.5,104.1l0.1,0.3l0,2.2l0-2.3L72.5,104.1z"/>
			<path fill="#E84C3D" d="M71.2,103.3c0.3,0.2,0.7,0.5,1.1,0.7l0,0.2l-0.1,9.4h-0.8l-0.2-10.1L71.2,103.3z"/>
			<path fill="#E84C3D" d="M65,98.4c1.1,0.7,2,1.5,3,2.4c0.9,0.8,1.9,1.7,3.1,2.6l0,0.3L71,113.7h-1.8L68.9,102l-0.2,10.8l-0.1-1.2
				l-0.1,2.2h-0.7l-0.1-1l-0.2-3.3l-0.1,1.2l-0.2-8.5l-0.1,5.9l-0.1-5.9l-0.2,11.7h-1.7l-0.1-8.3l0,2.8l-0.1-9.6L65,98.4z"/>
			<path fill="#E84C3D" d="M59.5,96.1c2.5,0.6,4.2,1.4,5.5,2.2l0,0.3l-0.1,14.6l-0.1-1.1l-0.1,1.5h-2.3l-0.2-4.4l0,0.9l-0.2-13
				l-0.2,16.4h-1.9L59.7,102l-0.1,4.7l-0.1-10.3L59.5,96.1z"/>
			<path fill="#E84C3D" d="M54,113.7l1.5-18.1l0-0.2c1.5,0.2,2.9,0.5,4,0.7l0,0.2l-0.2,17.3h-0.8L58.3,102l-0.2,11.7H54z"/>
		</g>
		<path fill="#F7941E" d="M77.1,62.4c-0.9-7.5,0.4-17.8,0.5-18.3c0,0,0,0,0,0c1-4.6,1.6-10.3,1.6-16.4C79.1,12.4,75.5,0,71,0h-1.1
			c-4.5,0-8.1,12.4-8.1,27.7c0,6.1,0.6,11.8,1.6,16.4c0,0,0,0,0,0c0.1,0.5,1.4,10.7,0.5,18.3c-0.8,6.4-6.2,12.1-7.9,13.8
			c-0.4,0.3-0.6,0.8-0.6,1.3v1.3h30.2v-1.3c0-0.5-0.2-1-0.6-1.3C83.3,74.5,77.9,68.9,77.1,62.4z M70.5,17.3c-2,0-3.7-1.6-3.7-3.6
			s1.6-3.6,3.7-3.6c2,0,3.7,1.6,3.7,3.6S72.5,17.3,70.5,17.3z"/>
		<polygon fill="#163551" points="70.5,78.8 55.4,78.8 55.4,90.9 70.5,90.9 85.6,90.9 85.6,78.8 		"/>
	</g>
</g>
</svg>
