<?xml version="1.0" encoding="utf-8"?>
<!-- Generator: Adobe Illustrator 19.0.1, SVG Export Plug-In . SVG Version: 6.00 Build 0)  -->
<svg version="1.1" id="Слой_1" xmlns="http://www.w3.org/2000/svg" xmlns:xlink="http://www.w3.org/1999/xlink" x="0px" y="0px"
	 width="70.8px" height="100.8px" viewBox="0 0 70.8 100.8" enable-background="new 0 0 70.8 100.8" xml:space="preserve">
<g>
	<g>
		<g>
			<path fill="#2D3E50" d="M39.3,100.8c-10.9,0-19.8-8.9-19.8-19.8V70.1h3.4V81c0,9.1,7.4,16.4,16.4,16.4c9.1,0,16.4-7.4,16.4-16.4
				V48.3h3.4V81C59.1,91.9,50.2,100.8,39.3,100.8z"/>
		</g>
		<g>
			<path fill="#222F3C" d="M51.5,26.7v11.5c0,0.1-0.1,0.1-0.1,0.1h-2.1c-0.1,0-0.1-0.1-0.1-0.1V26.7c0-0.7,0.5-1.2,1.2-1.2l0,0
				C51,25.5,51.5,26,51.5,26.7z"/>
			<path fill="#222F3C" d="M65.6,26.7v11.5c0,0.1-0.1,0.1-0.1,0.1h-2.1c-0.1,0-0.1-0.1-0.1-0.1V26.7c0-0.7,0.5-1.2,1.2-1.2l0,0
				C65.1,25.5,65.6,26,65.6,26.7z"/>
		</g>
		<polygon fill="#576573" points="62.1,76.1 52.6,76.1 51.8,61 63,61 		"/>
		<polygon fill="#576573" points="43.9,41.7 47.3,43.3 67.4,43.3 70.8,41.7 70.8,37.8 43.9,37.8 		"/>
		<polygon fill="#2D3E50" points="47.3,51.3 51.8,61 63,61 67.4,51.3 67.4,43.3 47.3,43.3 		"/>
		<path fill="#2D3E50" d="M51.8,62.1h4.1c0.4,0,0.7,0.3,0.7,0.7s-0.3,0.7-0.7,0.7h-4l0.2,3.1h3.8c0.4,0,0.7,0.3,0.7,0.7
			c0,0.4-0.3,0.7-0.7,0.7h-3.7l0.2,3.1h3.5c0.4,0,0.7,0.3,0.7,0.7c0,0.4-0.3,0.7-0.7,0.7h-3.5l0.2,3.4h9.5l0.1-1.1h-3.3
			c-0.4,0-0.7-0.3-0.7-0.7c0-0.4,0.3-0.7,0.7-0.7h3.4l0.2-3.1h-3.6c-0.4,0-0.7-0.3-0.7-0.7c0-0.4,0.3-0.7,0.7-0.7h3.7l0.2-3.1h-3.9
			c-0.4,0-0.7-0.3-0.7-0.7c0-0.4,0.3-0.7,0.7-0.7h4L63,61H51.8L51.8,62.1z"/>
		<rect x="54.7" y="76.1" fill="#2D3E50" width="5.3" height="2.2"/>
		<path fill="#576573" d="M52.6,46.3h9.6c0.3,0,0.6-0.3,0.6-0.6l0,0c0-0.3-0.3-0.6-0.6-0.6h-9.6c-0.3,0-0.6,0.3-0.6,0.6l0,0
			C51.9,46,52.2,46.3,52.6,46.3z"/>
		<path fill="#576573" d="M52.6,48.7h9.6c0.3,0,0.6-0.3,0.6-0.6l0,0c0-0.3-0.3-0.6-0.6-0.6h-9.6c-0.3,0-0.6,0.3-0.6,0.6l0,0
			C51.9,48.5,52.2,48.7,52.6,48.7z"/>
		<path fill="#576573" d="M52.6,51.1h9.6c0.3,0,0.6-0.3,0.6-0.6l0,0c0-0.3-0.3-0.6-0.6-0.6h-9.6c-0.3,0-0.6,0.3-0.6,0.6l0,0
			C51.9,50.9,52.2,51.1,52.6,51.1z"/>
	</g>
	<g>
		<path fill="#FECE30" d="M42.1,24.1c-0.7,6.7-5,9.8-9,20c0,0-0.8,1.3-1,6.4c-0.1,2.9-1.4,3.9-2.5,4.3H12.6
			c-1.1-0.4-2.4-1.4-2.5-4.3c-0.2-5.1-1-6.4-1-6.4c-4-10.2-8.2-13.3-9-20C-1.5,9.2,8.8,3.2,15.6,0.9c3.6-1.2,7.5-1.2,11.2,0
			C33.5,3.2,43.8,9.2,42.1,24.1z"/>
		<path fill="#2D3E50" d="M30,54.7V67c0,0.8-0.6,1.4-1.4,1.4H13.7c-0.8,0-1.4-0.6-1.4-1.4V54.7H30z"/>
		<path fill="#818B96" d="M25.1,68.4v1.1c0,0.8-0.6,1.4-1.4,1.4h-5.1c-0.8,0-1.4-0.6-1.4-1.4v-1.1H25.1z"/>
		<polygon fill="#818B96" points="30,56.7 30,59.4 12.3,61.2 12.3,58.4 		"/>
		<polygon fill="#818B96" points="30,62.1 30,64.8 12.3,66.5 12.3,63.8 		"/>
		<g>
			<g>
				<path fill="#F7931E" d="M33.7,17.2c-1-1.1-2.6-1.6-4.1-1.4c-1.2,0.1-2.1,0.6-2.6,1.3c-0.5,0.6-0.5,1.2-0.5,1.5l-0.3,3.9
					c-2.5,0-7.6,0-10.1,0l-0.3-3.9c0-0.2,0-0.9-0.5-1.5c-0.5-0.7-1.4-1.1-2.6-1.3c-1.6-0.2-3.1,0.3-4.1,1.4C7.8,18,7.4,19.1,7.5,20
					c0.3,2.3,1.7,3.6,4.1,3.8c0.8,0.1,2,0.1,3.2,0.1l2.5,30.9l1.4-0.1l-2.5-30.8c2.4,0,7.5,0,9.8,0l-2.6,30.8l1.4,0.1l2.7-30.9
					c1.3,0,2.5-0.1,3.3-0.1c2.4-0.2,3.7-1.5,4.1-3.8C34.9,19.1,34.5,18,33.7,17.2z M11.7,22.3c-1.7-0.1-2.6-0.9-2.8-2.6
					c-0.1-0.5,0.2-1.1,0.7-1.6c0.6-0.7,1.5-1,2.5-1c0.2,0,0.3,0,0.5,0c1.9,0.2,1.9,1.1,1.9,1.2l0,0.1l0.3,3.9
					C13.5,22.4,12.4,22.4,11.7,22.3z M33.4,19.8c-0.2,1.7-1.1,2.4-2.8,2.6c-0.7,0.1-1.8,0.1-3,0.1l0.3-3.8l0-0.1l0-0.1
					c0-0.1,0-1,1.9-1.2c1.1-0.1,2.2,0.2,2.9,1C33.2,18.7,33.5,19.3,33.4,19.8z"/>
			</g>
		</g>
	</g>
</g>
</svg>
