<?xml version="1.0" encoding="utf-8"?>
<!-- Generator: Adobe Illustrator 19.0.1, SVG Export Plug-In . SVG Version: 6.00 Build 0)  -->
<svg version="1.1" id="Слой_1" xmlns="http://www.w3.org/2000/svg" xmlns:xlink="http://www.w3.org/1999/xlink" x="0px" y="0px"
	 width="108px" height="97px" viewBox="0 0 108 97" enable-background="new 0 0 108 97" xml:space="preserve">
<g id="_x32_3">
	<rect x="90.3" y="3" transform="matrix(0.9438 -0.3305 0.3305 0.9438 3.9588 33.0332)" fill="#48647C" width="17.6" height="3.8"/>
	<path fill="#48647C" d="M89.8,2.1l-4.3,1.5l3.7,10.6l4.3-1.5c1-0.4,1.6-1.5,1.2-2.5l-2.4-6.8C91.9,2.2,90.8,1.7,89.8,2.1z"/>
	<polygon fill="#2C3E50" points="79.3,4 63,7.5 69.3,25.6 84.3,18.2 	"/>
	<path fill="#2C3E50" d="M60.4,31.1l-13.8,3.1l6.7,19.2l6.8-2.4c1.3-0.4,2.1-1.7,1.9-3L60.4,31.1z"/>
	<polygon fill="#D83A32" points="51.3,34.2 28.6,43.9 29.6,49 52.4,41 	"/>
	<polygon fill="#E74C3C" points="29.6,49 35.1,79.5 59.8,70.9 52.4,41 	"/>
	<path fill="#2C3E50" d="M0.5,33.8L4,43.9c1.4,4.1,5.7,6.5,9.9,5.6L4.7,23.2C0.9,25.1-1,29.6,0.5,33.8z"/>
	<path fill="#FD5342" d="M56.4,5L5.8,22.8c-0.4,0.1-0.7,0.3-1,0.5l9.2,26.3c0.4-0.1,0.7-0.2,1.1-0.3l50.6-17.7
		c4.5-1.6,6.9-6.5,5.3-11l-3.5-10.1C65.8,5.8,60.9,3.4,56.4,5z"/>
	<g>
		
			<rect x="18" y="11.6" transform="matrix(0.3305 0.9438 -0.9438 0.3305 33.9513 -3.7601)" fill="#2C3E50" width="3.2" height="20.9"/>
		
			<rect x="19.6" y="16.2" transform="matrix(0.3305 0.9438 -0.9438 0.3305 39.3133 -2.2175)" fill="#2C3E50" width="3.2" height="20.9"/>
		
			<rect x="21.2" y="20.7" transform="matrix(0.3305 0.9438 -0.9438 0.3305 44.6753 -0.675)" fill="#2C3E50" width="3.2" height="20.9"/>
		
			<rect x="22.8" y="25.3" transform="matrix(0.3305 0.9438 -0.9438 0.3305 50.0378 0.8678)" fill="#2C3E50" width="3.2" height="20.9"/>
	</g>
	
		<rect x="35.2" y="-5.7" transform="matrix(0.3305 0.9438 -0.9438 0.3305 50.8871 -19.6917)" fill="#95A5A6" width="8.3" height="63.4"/>
	<path fill="#34495E" d="M84,0.2l-3.2,1.1c-1.8,0.6-2.7,2.6-2.1,4.4l4,11.3c0.6,1.8,2.6,2.7,4.4,2.1l3.2-1.1
		c1.8-0.6,2.7-2.6,2.1-4.4l-4-11.3C87.7,0.5,85.7-0.4,84,0.2z"/>
	<path fill="#2C3E50" d="M62.6,69.9L32,80.6c-1.4,0.5-2.3,1.9-1.8,3.2l4.1,11.7c0.4,1.2,2,1.8,3.4,1.3l30.6-10.7
		c1.4-0.5,2.3-1.9,1.8-3.2L66,71.2C65.6,70,64.1,69.4,62.6,69.9z"/>
	<path fill="#48647C" d="M46.3,79.2l-7.9,2.8c-1.2,0.4-1.8,1.7-1.4,2.9l2.1,6.1c0.4,1.2,1.7,1.8,2.9,1.4l7.9-2.8
		c1.2-0.4,1.8-1.7,1.4-2.9l-2.1-6.1C48.7,79.4,47.4,78.7,46.3,79.2z"/>
</g>
</svg>
