<?xml version="1.0" encoding="utf-8"?>
<!-- Generator: Adobe Illustrator 19.0.1, SVG Export Plug-In . SVG Version: 6.00 Build 0)  -->
<svg version="1.1" id="Слой_1" xmlns="http://www.w3.org/2000/svg" xmlns:xlink="http://www.w3.org/1999/xlink" x="0px" y="0px"
	 width="100.4px" height="100.6px" viewBox="0 0 100.4 100.6" enable-background="new 0 0 100.4 100.6" xml:space="preserve">
<g>
	<g>
		<g>
			<path fill="#34495E" d="M96.8,78c-2.7-2.8-6.2-4.2-9.8-4.2c-1.7,0-3.3-0.7-4.4-1.9L32.4,21.8c-1.3-1.3-2-3.1-1.9-5
				c0.4-4.5-1.2-9.1-4.6-12.5c-4.6-4.5-11.3-5.5-16.9-3C8.5,1.5,8.4,2.4,9,2.7l7,3.9c1.8,1,2.4,3.2,1.5,5l-4.3,7.9
				c-1,1.8-3.2,2.4-5,1.5l-7-3.8c-0.6-0.3-1.2,0.2-1.1,0.8c0.5,3.1,1.9,6.1,4.3,8.5c3.2,3.2,7.5,4.7,11.7,4.5
				c1.8-0.1,3.5,0.6,4.7,1.9l51,51c1.1,1.1,1.8,2.6,1.8,4.1c0.1,3.2,1.4,6.4,3.9,8.9c5.3,5.3,14,5.2,19.2-0.2
				C101.7,91.3,101.7,83.1,96.8,78z M92.1,93.2l-0.4,1.9c-0.1,0.3-0.4,0.5-0.7,0.4L89.1,95c-0.2-0.1-0.4,0-0.6,0.2l-1.3,1.4
				c-0.2,0.3-0.6,0.3-0.9,0l-1.3-1.4c-0.2-0.2-0.4-0.2-0.6-0.2l-1.9,0.6c-0.3,0.1-0.7-0.1-0.7-0.4l-0.4-1.9c0-0.2-0.2-0.4-0.4-0.4
				l-1.9-0.4c-0.3-0.1-0.5-0.4-0.4-0.7l0.6-1.9c0.1-0.2,0-0.4-0.2-0.6l-1.4-1.3c-0.3-0.2-0.3-0.6,0-0.9l1.4-1.3
				c0.2-0.2,0.2-0.4,0.2-0.6l-0.6-1.9c-0.1-0.3,0.1-0.7,0.4-0.7l1.9-0.4c0.2,0,0.4-0.2,0.4-0.4l0.4-1.9c0.1-0.3,0.4-0.5,0.7-0.4
				l1.9,0.6c0.2,0.1,0.4,0,0.6-0.2l1.3-1.4c0.2-0.3,0.6-0.3,0.9,0l1.3,1.4c0.2,0.2,0.4,0.2,0.6,0.2l1.9-0.6c0.3-0.1,0.7,0.1,0.7,0.4
				l0.4,1.9c0,0.2,0.2,0.4,0.4,0.4l1.9,0.4c0.3,0.1,0.5,0.4,0.4,0.7l-0.6,1.9c-0.1,0.2,0,0.4,0.2,0.6l1.4,1.3c0.3,0.2,0.3,0.6,0,0.9
				l-1.4,1.3c-0.2,0.2-0.2,0.4-0.2,0.6l0.6,1.9c0.1,0.3-0.1,0.7-0.4,0.7l-1.9,0.4C92.4,92.8,92.2,93,92.1,93.2z"/>
			<path fill="#5D6D7E" d="M75.3,76.1L75.3,76.1c-1.8,1.8-4.7,1.8-6.5,0L26.2,33.5c-1.8-1.8-1.8-4.7,0-6.5l0,0
				c1.8-1.8,4.7-1.8,6.5,0l42.5,42.6C77.1,71.3,77.1,74.3,75.3,76.1z"/>
		</g>
	</g>
	<g>
		<g>
			<path fill="#34495E" d="M2,94.9c1.8-2.3,5.7-7.1,7.5-8.8c0.3-0.3,1.7-1.4,7.1-3.8l0.3-0.1l33-33.7l4.1,4.1l-33.7,33L20,85.8
				c-2.4,5.4-3.5,6.8-3.8,7.1c-1.7,1.7-6.5,5.6-8.8,7.5L2,94.9z"/>
			<g>
				<path fill="#E84C3D" d="M96.2,6.1C91.1,1,83.6,5.8,82.8,6.3c0,0,0,0,0,0C77.9,9,72.2,12.9,67.6,18.6c-3,3.8-5.1,7.5-6.6,10.6
					c-1.6,3.2-2.6,5.8-3.6,7.3c-0.2,0.2-1.1,1.5-1.5,1.9c-2.6,3.1-6.9,7.5-8,8.3c-1.3,1-7.3,5.3-7.9,5.7c-0.6,0.4-1.2,1.2-1.2,1.5
					c0,0.4,0.8,1.1,0.7,1.6c-0.1,0.4-0.3,1.4-0.6,2.1c-0.2,0.7-0.4,1,0.2,1.7c0.3,0.3,1,1.1,1.8,1.9c0.8,0.8,1.6,1.5,1.9,1.8
					c0.7,0.5,1,0.4,1.7,0.1c0.7-0.2,1.7-0.5,2.1-0.6c0.5-0.1,1.2,0.8,1.6,0.7c0.3,0,1.1-0.6,1.5-1.2c0.4-0.6,4.8-6.6,5.7-7.9
					c0.8-1,5.2-5.4,8.3-8c0.4-0.3,1.7-1.3,1.9-1.5c1.4-1,4.1-2,7.3-3.6c3.1-1.5,6.8-3.6,10.6-6.6c5.7-4.6,9.7-10.3,12.4-15.2
					c0,0,0,0,0,0C96.5,18.7,101.2,11.1,96.2,6.1z M89.8,7.6c1.2-1.2,3.3-1.1,4.7,0.2c1.3,1.3,1.4,3.4,0.2,4.7s-3.3,1.1-4.7-0.2
					C88.7,10.9,88.6,8.8,89.8,7.6z"/>
			</g>
		</g>
	</g>
</g>
</svg>
