<?xml version="1.0" encoding="utf-8"?>
<!-- Generator: Adobe Illustrator 19.0.1, SVG Export Plug-In . SVG Version: 6.00 Build 0)  -->
<svg version="1.1" id="Слой_1" xmlns="http://www.w3.org/2000/svg" xmlns:xlink="http://www.w3.org/1999/xlink" x="0px" y="0px"
	 width="97.5px" height="110px" viewBox="0 0 97.5 110" enable-background="new 0 0 97.5 110" xml:space="preserve">
<path fill="#FFC8A5" d="M39.5,22.1c0,0-3.8,3.8-5,6.6c-1.3,2.8,0,8.2,0,8.2s0.2,2.7,2.9,2.7c2.7,0,3.6-14.3,3.6-14.3L39.5,22.1z"/>
<path fill="#34495E" d="M84.8,109c-0.1,0.6-0.7,1-1.3,1H14c-0.6,0-1.1-0.4-1.3-1L2.5,64.4h92.4L84.8,109z"/>
<path fill="#34495E" d="M66.6,64.3H30.8V43.2c0-4.8,3.9-8.6,8.6-8.6H58c4.8,0,8.6,3.9,8.6,8.6V64.3z M37.3,57.8h22.8V43.2
	c0-1.2-1-2.2-2.2-2.2H39.5c-1.2,0-2.2,1-2.2,2.2V57.8z"/>
<path fill="#34495E" d="M88.8,50.2c-0.2-0.5-0.7-0.8-1.2-0.8H9.9c-0.5,0-1,0.3-1.2,0.8L2.5,64.4h92.4L88.8,50.2z"/>
<path fill="#5D6D7E" d="M83.5,110c0.6,0,1.1-0.4,1.3-1l10.2-44.6l-6.2-14.1c-0.2-0.5-0.7-0.8-1.2-0.8H48.7V110H83.5z"/>
<path fill="#9EA7B2" d="M97.5,66.3c0,0.7-0.6,1.3-1.3,1.3H1.3C0.6,67.6,0,67,0,66.3v-3.8c0-0.7,0.6-1.3,1.3-1.3h94.9
	c0.7,0,1.3,0.6,1.3,1.3V66.3z"/>
<rect x="17" y="58.9" fill="#F7941E" width="14.8" height="10.9"/>
<rect x="65.7" y="58.9" fill="#F7941E" width="14.8" height="10.9"/>
<path fill="#FFDAB9" d="M38.8,21.5c0,0,0,0.9,0,3.2c0,2.2-1.8,4.6-1.8,8.5c0,3.8,0.3,7,0.6,8.9c0.2,1.8,0.7,3.5,3.3,3.5
	c2.6,0,2.6-2,2.6-2.5c-0.1,0.9,0.4,2.5,3.1,2.5s2.9-2.4,2.9-2.4c0,1.4,0.8,1.8,2.6,1.6c1.8-0.2,2.4-1.4,2.4-2.4
	c0.1,1.2,1,1.5,2.3,1.4c1.3-0.1,2.9-0.8,3-2.3c0,0,1-6.5,1-10.6c0-2.4-1.6-5.4-1.6-9.1H38.8z"/>
<g>
	<rect x="38.2" y="10" fill="#F0F0F0" width="21.5" height="12.4"/>
</g>
<g>
	<rect x="36.6" y="0" fill="#EF544D" width="24.6" height="19.1"/>
</g>
<g>
	<rect x="48.9" y="0" fill="#E84C3D" width="12.3" height="19.1"/>
</g>
<path fill="#FFC3A0" d="M43.5,43.4L43,38.9c0-0.3,0.2-0.5,0.4-0.6c0.3,0,0.5,0.2,0.6,0.4c0,0,0,0.1,0,0.1L43.5,43.4z"/>
<path fill="#FFC3A0" d="M49.5,43.4L49,38.9c0-0.3,0.2-0.5,0.4-0.6c0.3,0,0.5,0.2,0.6,0.4c0,0,0,0.1,0,0.1L49.5,43.4z"/>
<path fill="#FFC3A0" d="M54.5,42.5L54,38c0-0.3,0.2-0.5,0.4-0.6c0.3,0,0.5,0.2,0.6,0.4c0,0,0,0.1,0,0.1L54.5,42.5z"/>
</svg>
