<?xml version="1.0" encoding="utf-8"?>
<!-- Generator: Adobe Illustrator 19.0.1, SVG Export Plug-In . SVG Version: 6.00 Build 0)  -->
<svg version="1.1" id="Слой_1" xmlns="http://www.w3.org/2000/svg" xmlns:xlink="http://www.w3.org/1999/xlink" x="0px" y="0px"
	 width="162.4px" height="102.1px" viewBox="0 0 162.4 102.1" enable-background="new 0 0 162.4 102.1" xml:space="preserve">
<g>
	<polygon fill="#34495E" points="135.1,41.2 130.8,50.3 121.9,46.2 118.7,55.5 109.8,51.4 106.6,60.7 97.7,56.6 94.5,65.8 
		85.6,61.8 82.4,71 73.5,67 70.3,76.2 61.4,72.1 58.2,81.4 49.3,77.3 46.1,86.6 37.2,82.5 34,91.7 25.1,87.7 21.9,96.9 13,92.9 
		9.8,102.1 0,86.1 107.6,19.4 121.4,38.5 	"/>
	<path fill="#E84C3D" d="M121.4,38.9l20.1,4.1c0,0,7.8-3,11.1-5c2.6-1.5,7.2-5.5,9.2-7.2c0.6-0.5,0.8-1.3,0.5-2
		c-1.3-3.1-5.2-11.6-11-15.4c-7.3-4.7-7.7-4.5-8.9-6.9c-1.2-2.4,0.2-4.7-0.8-5.6c-1-0.9-1.7-3.2-15.4,5.8c0,0-3.2,1.8-4.3,2.7
		c-1.1,0.9-2.8,2.8-2.8,2.8l-11.8,7.3L121.4,38.9z M143.2,34.1l-17.4-15.7c-1.2-1.1-1.3-3-0.2-4.2l2.7-3c1.1-1.2,3-1.3,4.2-0.2
		l7.3,8.1c0.2,0.2,0.5,0.5,0.7,0.6l9.4,7c1.2,1.1,1.3,3,0.2,4.2l-2.7,3C146.4,35.1,144.5,35.2,143.2,34.1z"/>
	<g>
		<circle fill="#BCBEC0" cx="114.8" cy="19.3" r="1.8"/>
		<circle fill="#BCBEC0" cx="123.5" cy="29.9" r="1.8"/>
		<circle fill="#BCBEC0" cx="136.5" cy="36.1" r="1.8"/>
	</g>
</g>
</svg>
