<?xml version="1.0" encoding="utf-8"?>
<!-- Generator: Adobe Illustrator 19.0.1, SVG Export Plug-In . SVG Version: 6.00 Build 0)  -->
<svg version="1.1" id="Слой_1" xmlns="http://www.w3.org/2000/svg" xmlns:xlink="http://www.w3.org/1999/xlink" x="0px" y="0px"
	 width="88px" height="102.1px" viewBox="0 0 88 102.1" enable-background="new 0 0 88 102.1" xml:space="preserve">
<g>
	<path fill="#FFDAB9" d="M55.3,63.8v-6.3c-3,3.5-5.5,4.3-11.2,4.3c0,0-0.1,0-0.1,0c0,0,0,0,0,0c0,0,0,0,0,0c0,0-0.1,0-0.1,0
		c-5.7,0-8.2-0.9-11.2-4.3v6.3L44,74.6L55.3,63.8z"/>
	<path fill="#9EA7B2" d="M27.8,80.5l-6,0.5l-2.5-10.4l0,0l-9.7,2.5C3.9,75,0,80.4,0,86.4v15.7h3.6H14h2.9h17l-11.1-18L27.8,80.5z"/>
	<path fill="#9EA7B2" d="M78.4,73.1l-9.7-2.5h0l-2.5,10.4l-6-0.5l5,3.5l-11.1,18h17H74h10.4H88V86.4C88,80.4,84.1,75,78.4,73.1z"/>
	<polygon fill="#EDEDED" points="36.5,81.1 34,78.5 39.6,97.4 41,82.2 40.5,77.6 	"/>
	<polygon fill="#EDEDED" points="47.5,77.6 47,82.2 48.4,97.4 54,78.5 51.5,81.1 	"/>
	<polygon fill="#F5F5F5" points="34,78.5 36.5,81.1 40.5,77.6 44,74.6 32.7,63.8 30.2,65.6 	"/>
	<polygon fill="#F5F5F5" points="47.5,77.6 51.5,81.1 54,78.5 57.8,65.6 55.3,63.8 44,74.6 	"/>
	<polygon fill="#DB3F37" points="44,74.6 40.5,77.6 41,82.2 47,82.2 47.5,77.6 	"/>
	<polygon fill="#E84C3D" points="47,82.2 41,82.2 39.6,97.4 41,102.1 47,102.1 48.4,97.4 	"/>
	<path fill="#FFE4C3" d="M43.9,61.8C43.9,61.8,44,61.8,43.9,61.8c0.1,0,0.1,0,0.1,0c0,0,0,0,0,0c0,0,0.1,0,0.1,0
		c5.7,0,8.2-0.9,11.2-4.3c1.3-1.5,2.8-3.6,4.6-6.3c1.6-2.3,2.8-5.7,3.7-10.1c0.1,0,0.2,0.1,0.4,0.1c0.4,0.1,0.8,0,1.2-0.1
		c1.7-0.6,2.2-3,2.7-6.1c0.6-3.8,0.4-7.1-1.7-7.5c-1.1-0.2-2.3,0.6-3.2,1.9V19.2c0-4.5-3.6-8.1-8.1-8.1H33.1c-4.5,0-8.1,3.6-8.1,8.1
		v10.2c-0.9-1.3-2.1-2.1-3.2-1.9c-2.1,0.3-2.4,3.7-1.8,7.5c0.5,3.1,1.2,5.4,2.9,6.1c0.4,0.2,0.8,0.2,1.2,0.1c0.1,0,0.2-0.1,0.4-0.1
		c0.9,4.3,2.1,7.8,3.7,10.1c1.9,2.7,3.3,4.8,4.6,6.3C35.7,60.9,38.2,61.8,43.9,61.8z"/>
	<path fill="#34495E" d="M25.1,29.4V19.2c0-4.5,3.6-8.1,8.1-8.1h21.8c4.5,0,8.1,3.6,8.1,8.1v10.2c0.9-1.3,2.1-2.1,3.2-1.9l0.7-8.8
		c0.2-4.6-1.6-9-4.7-12.3C57.6,1.6,53.1,0,44,0c0,0,0,0,0,0c0,0,0,0,0,0c-9.1,0-13.6,1.6-18.1,6.4c-3.1,3.3-4.9,7.8-4.7,12.3
		l0.7,8.8C23,27.3,24.1,28,25.1,29.4z"/>
	<polygon fill="#BEC5CB" points="60.2,80.5 66.2,81.1 68.7,70.7 68.7,70.7 57.8,65.6 57.8,65.6 54,78.5 48.4,97.4 47,102.1 
		48.8,102.1 52.2,102.1 54.1,102.1 65.2,84.1 	"/>
	<polygon fill="#BEC5CB" points="34,78.5 30.2,65.6 30.2,65.6 19.3,70.7 19.3,70.7 21.8,81.1 27.8,80.5 22.8,84.1 33.9,102.1 
		35.8,102.1 39.2,102.1 41,102.1 39.6,97.4 	"/>
	<path fill="#34495E" d="M66,17.7c-12.2-0.3-26,2.5-37-5.4c-4.2-2.4-1.2-6.6-1.2-6.6h33.1L66,17.7z"/>
</g>
</svg>
