<?xml version="1.0" encoding="utf-8"?>
<!-- Generator: Adobe Illustrator 19.0.1, SVG Export Plug-In . SVG Version: 6.00 Build 0)  -->
<svg version="1.1" id="Слой_1" xmlns="http://www.w3.org/2000/svg" xmlns:xlink="http://www.w3.org/1999/xlink" x="0px" y="0px"
	 width="95.7px" height="102.1px" viewBox="0 0 95.7 102.1" enable-background="new 0 0 95.7 102.1" xml:space="preserve">
<g>
	<path fill="#FFDAB9" d="M62.2,23.8c0,2.1-0.1,4.2-0.3,6.2c-1.6,13.6-8.4,23.7-18.9,23.7c-10.6,0-17.4-10.2-19-23.9
		c-0.2-1.9-0.3-4-0.3-6c0-10.7,8.6-19.3,19.3-19.3C53.6,4.5,62.2,13.2,62.2,23.8z"/>
	<path fill="#FFE4C3" d="M61.9,30c0.2-2,0.3-4.1,0.3-6.2c0-10.7-8.6-19.3-19.3-19.3v49.2C53.4,53.8,60.3,43.6,61.9,30z"/>
	<path fill="#34495E" d="M59.5,30c0,1.5-1.9,7.9-6.3,12.5c0,0-6-5.3-10.3-5.3c-4.3,0-10.3,5.3-10.3,5.3c-4.3-4.6-6.3-11-6.3-12.5
		L24,29.9c1.5,13.7,8.4,23.9,19,23.9c10.5,0,17.4-10.1,18.9-23.7H59.5z"/>
	<g>
		<path fill="#FFDAB9" d="M23.7,25.6l0-0.3c-2.2-2.2-3.9,0.3-3,3.5c0.9,3.3,1.2,3.9,2.2,6.8c0.9,2.9,2.5,1.3,2.5,1.3l0-0.2
			C24.3,33.3,23.8,29.5,23.7,25.6z"/>
		<path fill="#FFDAB9" d="M62.2,25.6l0-0.3c2.2-2.2,3.9,0.3,3,3.5C64.2,32,64,32.6,63,35.6c-0.9,2.9-2.5,1.3-2.5,1.3l0-0.2
			C61.5,33.3,62,29.5,62.2,25.6z"/>
	</g>
	<path fill="#34495E" d="M42.9,0C28.8,0,19.1,8,21.6,24.4l0,0.1c0.5-0.2,1.2,0,2,0.7l0,0.3c0,1.5,0.2,3,0.3,4.5h2.4
		c0,0-0.2-3.7,0.3-7.9c12,1.9,23-5.7,25.5-11c0.3,0.1,0,0,0,0c8,4.1,7.2,18.8,7.2,18.8h2.4c0.2-1.5,0.3-2.9,0.3-4.5l0-0.3
		c0.7-0.7,1.4-0.9,2-0.7l0-0.1C66.7,8,57,0,42.9,0z"/>
	<path fill="#FFDAB9" d="M42.9,53.8c-4.1,0-7.7-1.6-10.6-4.3v24.7h21.1V49.5C50.6,52.2,47,53.8,42.9,53.8z"/>
	<path fill="#EBEBEB" d="M58.1,60.5c0,0,4,2.2,8.4,3.3c0.9,0.2,1.8,0.4,2.7,0.5c1.1,0.1,2.4,0.2,3.6,0.4c4.4,0.6,8.8,1.9,10,8
		c1.6,7.8,3,29.3,3,29.3H42.9h0H0c0,0,1.4-21.5,3-29.3c1.3-6.1,5.7-7.5,10-8c1.2-0.2,2.4-0.3,3.6-0.4c0.9-0.1,1.8-0.3,2.7-0.5
		c4.4-1.1,8.4-3.3,8.4-3.3l9.7,9l5.5,3.3l5.5-3.3L58.1,60.5z"/>
	<ellipse fill="#FFE4C3" cx="42.9" cy="44.5" rx="5.5" ry="2.1"/>
	<polygon fill="#F5F5F5" points="32.3,52.9 29.6,54.2 24,73.2 37.5,69.5 32.3,57.5 	"/>
	<polygon fill="#F7941E" points="72.8,102.1 66.5,88.9 42.9,88.9 19.4,88.9 13,102.1 	"/>
	<path fill="#F9A141" d="M20.9,95.5c-1.7,0.3-3.4-0.9-3.6-2.7L13,64.7c1.2-0.2,2.4-0.3,3.6-0.4c0.9-0.1,1.8-0.3,2.7-0.5l4.2,28
		C23.9,93.6,22.7,95.2,20.9,95.5z"/>
	<polygon fill="#F5F5F5" points="53.5,52.9 56.2,54.2 61.9,73.2 48.4,69.5 53.5,57.5 	"/>
	<circle fill="#FFFFFF" cx="20.3" cy="91.5" r="1.4"/>
	<path fill="#FFC800" d="M64.9,95.5c1.7,0.3,3.4-0.9,3.6-2.7l4.2-28.1c-1.2-0.2-2.4-0.3-3.6-0.4c-0.9-0.1-1.8-0.3-2.7-0.5l-4.2,28
		C62,93.6,63.2,95.2,64.9,95.5z"/>
	<circle fill="#FFFFFF" cx="65.5" cy="91.5" r="1.4"/>
	<rect x="42.2" y="72.8" fill="#C8C8C8" width="1.4" height="16.1"/>
	<circle fill="#C8C8C8" cx="39.5" cy="77.2" r="1.4"/>
	<circle fill="#C8C8C8" cx="39.5" cy="84.6" r="1.4"/>
	<polygon fill="#9EA7B2" points="73.6,49.7 51.4,70.6 53.7,70.6 53.7,102.1 93.5,102.1 93.5,70.6 95.7,70.6 	"/>
	<polygon fill="#BEC5CB" points="93.5,102.1 93.5,70.6 95.7,70.6 73.6,49.7 73.6,102.1 	"/>
</g>
</svg>
