<svg xmlns="http://www.w3.org/2000/svg" xmlns:xlink="http://www.w3.org/1999/xlink" width="13" height="10" viewBox="0 0 13 10"><defs><path id="mrdra" d="M1011.16 9166.999c-.291 0-.545-.095-.76-.281l3.684-3.607.254.18c.276.2.5.355.671.466.172.11.4.225.686.34.285.117.551.174.798.174h.014c.247 0 .513-.057.798-.173.285-.116.514-.23.686-.341.171-.111.395-.267.67-.466l.256-.18 3.683 3.607a1.125 1.125 0 0 1-.76.281zm2.086-4.468l-3.246 3.178v-5.486c.213.233.457.439.733.619 1.027.683 1.864 1.246 2.513 1.69zm9.754-2.308v5.486l-3.245-3.177a210.59 210.59 0 0 1 2.52-1.69c.275-.185.517-.39.725-.619zm-.345-2.89c.23.223.345.49.345.803 0 .374-.118.731-.355 1.072a3.422 3.422 0 0 1-.885.874 3652.586 3652.586 0 0 0-3.504 2.383l-.2.141c-.157.111-.287.202-.391.27-.105.068-.23.146-.378.23-.147.086-.286.15-.417.192-.13.043-.251.064-.363.064h-.014c-.111 0-.232-.02-.363-.064a2.216 2.216 0 0 1-.417-.191 6.734 6.734 0 0 1-.377-.231 13.962 13.962 0 0 1-.392-.27l-.2-.14-.108-.077a314.461 314.461 0 0 0-1.9-1.296c-.828-.56-1.324-.897-1.488-1.01a3.57 3.57 0 0 1-.849-.822c-.266-.347-.399-.67-.399-.969 0-.37.1-.677.301-.924.2-.245.487-.369.86-.369h10.678c.315 0 .587.112.817.334z"/></defs><g><g transform="translate(-1010 -9157)"><use fill="#fff" xlink:href="#mrdra"/></g></g></svg>