<svg xmlns="http://www.w3.org/2000/svg" xmlns:xlink="http://www.w3.org/1999/xlink" width="13" height="13" viewBox="0 0 13 13"><defs><path id="sji3a" d="M1014.08 9105.301l-3.004-3.006 1.163-1.165a.46.46 0 0 1 .65-.005l2.341 2.342c.18.18.18.473-.002.654l-.513.513-.477.477c-.058.06-.111.122-.157.19zm3.945 5.129l3.085 3.084c-.737.719-2.568.632-4.177-.153-.69-.335-1.32-.772-1.917-1.226-.594-.451-1.15-.95-1.674-1.475a17.109 17.109 0 0 1-1.47-1.678c-.452-.596-.89-1.223-1.228-1.92-.787-1.607-.878-3.436-.16-4.174l3.085 3.084c-.182.489-.114 1.07.233 1.47.424.496.872.965 1.329 1.426.458.458.93.907 1.422 1.33.403.346.984.413 1.472.232zm4.842 1.33c-.389.387-.777.774-1.165 1.163l-3.006-3.006c.069-.047.133-.1.191-.158l.476-.477.514-.513c.18-.18.474-.18.654-.002l2.34 2.342a.46.46 0 0 1-.004.651z"/></defs><g><g transform="translate(-1010 -9101)"><use fill="#fff" xlink:href="#sji3a"/></g></g></svg>