<svg xmlns="http://www.w3.org/2000/svg" xmlns:xlink="http://www.w3.org/1999/xlink" width="13" height="13" viewBox="0 0 13 13"><defs><path id="1smsa" d="M1023 9129.5a6.36 6.36 0 0 1-.87 3.263 6.47 6.47 0 0 1-2.367 2.366 6.36 6.36 0 0 1-3.263.871 6.36 6.36 0 0 1-3.263-.871 6.473 6.473 0 0 1-2.366-2.366 6.36 6.36 0 0 1-.872-3.263c0-1.18.29-2.268.872-3.263a6.471 6.471 0 0 1 2.366-2.367 6.361 6.361 0 0 1 3.263-.871c1.18 0 2.267.29 3.263.871a6.472 6.472 0 0 1 2.366 2.367c.581.995.872 2.083.872 3.263zm-1.895 0c0-.835-.206-1.606-.618-2.311a4.586 4.586 0 0 0-1.676-1.676 4.497 4.497 0 0 0-2.31-.618c-.836 0-1.607.206-2.312.618a4.587 4.587 0 0 0-1.676 1.676 4.502 4.502 0 0 0-.618 2.31c0 .836.206 1.606.618 2.311.412.706.97 1.264 1.676 1.676a4.498 4.498 0 0 0 2.311.618c.835 0 1.606-.206 2.31-.618a4.586 4.586 0 0 0 1.677-1.676 4.5 4.5 0 0 0 .618-2.31zm-3.598-3.175c.051.051.077.116.077.194v3.793a.262.262 0 0 1-.27.27h-2.71a.263.263 0 0 1-.195-.075.264.264 0 0 1-.076-.195v-.542c0-.079.025-.144.076-.194a.263.263 0 0 1 .195-.076h1.896v-2.98c0-.08.025-.144.076-.195a.263.263 0 0 1 .195-.076h.542c.079 0 .144.025.194.076z"/></defs><g><g transform="translate(-1010 -9123)"><use fill="#fff" xlink:href="#1smsa"/></g></g></svg>