<?xml version="1.0" encoding="utf-8"?>
<!-- Generator: Adobe Illustrator 19.0.1, SVG Export Plug-In . SVG Version: 6.00 Build 0)  -->
<svg version="1.1" id="Слой_1" xmlns="http://www.w3.org/2000/svg" xmlns:xlink="http://www.w3.org/1999/xlink" x="0px" y="0px"
	 width="86.4px" height="96.9px" viewBox="0 0 86.4 96.9" enable-background="new 0 0 86.4 96.9" xml:space="preserve">
<g>
	<polygon fill="#F5B540" points="43.2,13.1 0,44.3 0,96.9 86.4,96.9 86.4,44.3 	"/>
	<path fill="#EBEBEB" d="M10.9,0C10,0,9.1,0.3,8.4,1c-0.7,0.7-1,1.6-1,2.5v67.6H79V3.5c0-0.9-0.3-1.8-1-2.5c-0.7-0.7-1.6-1-2.5-1
		H10.9z"/>
	<rect x="15.6" y="10.8" fill="#FD5342" width="31.6" height="31.6"/>
	<g>
		<path fill="#FFFFFF" d="M31.4,36.7c-5.5,0-10-4.5-10-10c0-5.5,4.5-10,10-10s10,4.5,10,10c0,0.7-0.5,1.2-1.2,1.2
			c-0.7,0-1.2-0.5-1.2-1.2c0-4.2-3.4-7.7-7.7-7.7s-7.7,3.4-7.7,7.7c0,4.2,3.4,7.7,7.7,7.7c1.4,0,2.7-0.4,3.8-1
			c0.6-0.3,1.3-0.1,1.6,0.4c0.3,0.6,0.1,1.3-0.4,1.6C35,36.2,33.2,36.7,31.4,36.7z"/>
		<path fill="#FFFFFF" d="M31.4,32.3c-3.1,0-5.6-2.5-5.6-5.6s2.5-5.6,5.6-5.6c3.1,0,5.6,2.5,5.6,5.6S34.5,32.3,31.4,32.3z
			 M31.4,23.4c-1.8,0-3.2,1.5-3.2,3.3c0,1.8,1.5,3.3,3.2,3.3c1.8,0,3.3-1.5,3.3-3.3C34.7,24.9,33.2,23.4,31.4,23.4z"/>
		<path fill="#FFFFFF" d="M38.1,32.3c-0.9,0-1.8-0.4-2.4-1c-0.6-0.6-1-1.5-1-2.4v-2.2c0-0.7,0.5-1.2,1.2-1.2c0.7,0,1.2,0.5,1.2,1.2
			v2.2c0,0.3,0.1,0.5,0.3,0.7c0.4,0.4,1.1,0.4,1.5,0c0.2-0.2,0.3-0.5,0.3-0.7v-2.2c0-0.7,0.5-1.2,1.2-1.2c0.7,0,1.2,0.5,1.2,1.2v2.2
			c0,0.9-0.4,1.8-1,2.4C39.9,31.9,39,32.3,38.1,32.3z"/>
	</g>
	<g>
		<rect x="50.8" y="31.9" fill="#BEC5CB" width="20" height="3.5"/>
		<rect x="50.8" y="39" fill="#BEC5CB" width="20" height="3.5"/>
		<rect x="15.6" y="46" fill="#BEC5CB" width="55.1" height="3.5"/>
		<rect x="15.6" y="53" fill="#BEC5CB" width="31.6" height="3.5"/>
		<rect x="50.8" y="24.9" fill="#BEC5CB" width="20" height="3.5"/>
		<rect x="50.8" y="17.9" fill="#BEC5CB" width="20" height="3.5"/>
		<rect x="50.8" y="10.8" fill="#BEC5CB" width="20" height="3.5"/>
	</g>
	<polygon fill="#FECE66" points="86.4,44.3 86.4,96.9 43.2,70.6 	"/>
	<polygon fill="#FECE66" points="43.2,70.6 0,96.9 0,44.3 	"/>
	<polygon fill="#F5B540" points="86.4,96.9 0,96.9 43.2,70.6 	"/>
</g>
</svg>
