<?xml version="1.0" encoding="utf-8"?>
<!-- Generator: Adobe Illustrator 19.0.1, SVG Export Plug-In . SVG Version: 6.00 Build 0)  -->
<svg version="1.1" id="Слой_1" xmlns="http://www.w3.org/2000/svg" xmlns:xlink="http://www.w3.org/1999/xlink" x="0px" y="0px"
	 width="84.9px" height="97.6px" viewBox="0 0 84.9 97.6" enable-background="new 0 0 84.9 97.6" xml:space="preserve">
<g>
	<g>
		<rect x="75.2" y="31.4" fill="#FD8369" width="3.3" height="57.4"/>
		<rect x="78.4" y="31.4" fill="#EA6552" width="3.3" height="57.4"/>
		<rect x="81.7" y="31.4" fill="#E24F3B" width="3.3" height="57.4"/>
		<polygon fill="#FFFFFF" points="84.9,31.4 81.7,25.8 78.4,25.8 75.2,31.4 		"/>
		<polygon fill="#E6E5E5" points="84.9,31.4 81.7,31.4 80.6,25.8 81.7,25.8 		"/>
		<polygon fill="#343B43" points="81.7,25.8 80,23 78.4,25.8 		"/>
		<rect x="81.7" y="88.8" fill="#E6E5E5" width="3.3" height="3.2"/>
		<rect x="75.2" y="88.8" fill="#FFFFFF" width="6.5" height="3.2"/>
		<path fill="#343B43" d="M84.9,92.8V92h-3.3v0.8c0,1.2-0.5,2.5-1.4,3.4c-0.5,0.5-1.2,0.9-1.8,1.1c0.5,0.2,1.1,0.3,1.6,0.3
			c1.3,0,2.5-0.5,3.5-1.4C84.5,95.3,84.9,94,84.9,92.8z"/>
		<path fill="#495057" d="M81.7,92.8V92h-6.5l0,0.8c0,1.2,0.5,2.5,1.4,3.4c0.5,0.5,1.2,0.9,1.8,1.1c0.7-0.2,1.3-0.6,1.8-1.1
			C81.2,95.3,81.7,94,81.7,92.8z"/>
	</g>
	<path fill="#2C3E50" d="M3.2,6.4C2.4,6.4,1.6,6.8,1,7.4C0.3,8,0,8.8,0,9.7v84.8c0,0.8,0.3,1.6,1,2.3c0.6,0.6,1.5,0.9,2.3,0.9H67
		c0.8,0,1.7-0.3,2.3-0.9c0.6-0.6,1-1.5,1-2.3V9.7c0-0.8-0.3-1.6-1-2.3c-0.6-0.6-1.5-0.9-2.3-0.9H3.2z"/>
	<rect x="7.6" y="6.4" fill="#FFFFFF" width="55.1" height="83.7"/>
	<rect x="13.4" y="37.4" fill="#CCCBCA" width="43.5" height="3.6"/>
	<rect x="13.4" y="44.6" fill="#CCCBCA" width="43.5" height="3.6"/>
	<rect x="13.4" y="51.8" fill="#CCCBCA" width="43.5" height="3.6"/>
	<rect x="13.4" y="59.1" fill="#CCCBCA" width="43.5" height="3.6"/>
	<rect x="13.4" y="66.3" fill="#CCCBCA" width="43.5" height="3.6"/>
	<rect x="13.4" y="73.5" fill="#CCCBCA" width="21.7" height="3.6"/>
	<rect x="23.2" y="23" fill="#F7941E" width="23.8" height="3.6"/>
	<rect x="13.4" y="30.2" fill="#CCCBCA" width="43.5" height="3.6"/>
	<path fill="#48647C" d="M41.6,6.4c0-3.6-2.9-6.4-6.5-6.4c-3.6,0-6.5,2.9-6.5,6.4h-5.4v7.5H47V6.4H41.6z M32.4,6.4
		c0-1.5,1.2-2.8,2.8-2.8c1.5,0,2.8,1.2,2.8,2.8H32.4z"/>
</g>
</svg>
