<?xml version="1.0" encoding="utf-8"?>
<!-- Generator: Adobe Illustrator 19.0.1, SVG Export Plug-In . SVG Version: 6.00 Build 0)  -->
<svg version="1.1" id="Слой_1" xmlns="http://www.w3.org/2000/svg" xmlns:xlink="http://www.w3.org/1999/xlink" x="0px" y="0px"
	 width="93.8px" height="105.9px" viewBox="0 0 93.8 105.9" enable-background="new 0 0 93.8 105.9" xml:space="preserve">
<path fill="#FFC8A5" d="M38,21.3c0,0-3.6,3.7-4.8,6.3c-1.2,2.7,0,7.9,0,7.9s0.1,2.6,2.8,2.6c2.6,0,3.4-13.8,3.4-13.8L38,21.3z"/>
<path fill="#34495E" d="M81.6,105c-0.1,0.6-0.6,1-1.2,1H13.4c-0.6,0-1.1-0.4-1.2-1L2.4,62h88.9L81.6,105z"/>
<path fill="#34495E" d="M64.2,61.9H29.7V41.6c0-4.6,3.7-8.3,8.3-8.3h17.8c4.6,0,8.3,3.7,8.3,8.3V61.9z M35.9,55.7h22v-14
	c0-1.1-0.9-2.1-2.1-2.1H38c-1.1,0-2.1,0.9-2.1,2.1V55.7z"/>
<path fill="#34495E" d="M85.5,48.4c-0.2-0.5-0.6-0.8-1.1-0.8H9.5c-0.5,0-0.9,0.3-1.1,0.8L2.4,62h88.9L85.5,48.4z"/>
<path fill="#5D6D7E" d="M80.4,105.9c0.6,0,1.1-0.4,1.2-1l9.8-43l-5.9-13.6c-0.2-0.5-0.6-0.8-1.1-0.8H46.9v58.3H80.4z"/>
<path fill="#9EA7B2" d="M93.8,63.8c0,0.7-0.6,1.2-1.2,1.2H1.2c-0.7,0-1.2-0.6-1.2-1.2v-3.6c0-0.7,0.6-1.2,1.2-1.2h91.3
	c0.7,0,1.2,0.6,1.2,1.2V63.8z"/>
<rect x="16.4" y="56.7" fill="#F7941E" width="14.2" height="10.5"/>
<rect x="63.3" y="56.7" fill="#F7941E" width="14.2" height="10.5"/>
<path fill="#FFDAB9" d="M37.4,20.7c0,0,0,0.9,0,3.1c0,2.1-1.7,4.5-1.7,8.2c0,3.7,0.3,6.8,0.5,8.5c0.2,1.8,0.7,3.3,3.2,3.3
	s2.5-1.9,2.5-2.4c-0.1,0.9,0.4,2.4,3,2.4c2.6,0,2.8-2.3,2.8-2.3c0,1.4,0.8,1.7,2.5,1.5c1.7-0.2,2.3-1.4,2.3-2.3
	c0.1,1.1,1,1.5,2.2,1.3c1.3-0.1,2.8-0.8,2.9-2.3c0,0,1-6.2,1-10.2c0-2.3-1.6-5.2-1.6-8.8H37.4z"/>
<g>
	<rect x="36.8" y="9.6" fill="#F0F0F0" width="20.6" height="11.9"/>
</g>
<g>
	<rect x="35.3" y="0" fill="#EF544D" width="23.7" height="18.4"/>
</g>
<g>
	<rect x="47.1" y="0" fill="#E84C3D" width="11.8" height="18.4"/>
</g>
<path fill="#FFC3A0" d="M41.9,41.8l-0.5-4.4c0-0.3,0.2-0.5,0.4-0.5c0.3,0,0.5,0.2,0.5,0.4c0,0,0,0.1,0,0.1L41.9,41.8z"/>
<path fill="#FFC3A0" d="M47.7,41.8l-0.5-4.4c0-0.3,0.2-0.5,0.4-0.5c0.3,0,0.5,0.2,0.5,0.4c0,0,0,0.1,0,0.1L47.7,41.8z"/>
<path fill="#FFC3A0" d="M52.4,40.9L52,36.6c0-0.3,0.2-0.5,0.4-0.5c0.3,0,0.5,0.2,0.5,0.4c0,0,0,0.1,0,0.1L52.4,40.9z"/>
</svg>
