<?xml version="1.0" encoding="utf-8"?>
<!-- Generator: Adobe Illustrator 19.0.1, SVG Export Plug-In . SVG Version: 6.00 Build 0)  -->
<svg version="1.1" id="Слой_1" xmlns="http://www.w3.org/2000/svg" xmlns:xlink="http://www.w3.org/1999/xlink" x="0px" y="0px"
	 width="96.1px" height="96.3px" viewBox="0 0 96.1 96.3" enable-background="new 0 0 96.1 96.3" xml:space="preserve">
<g>
	<g>
		<g>
			<path fill="#34495E" d="M92.6,74.6c-2.5-2.7-5.9-4-9.3-4c-1.6,0-3.1-0.6-4.3-1.8l-48-48c-1.3-1.3-1.9-3-1.8-4.8
				c0.4-4.3-1.1-8.7-4.4-11.9C20.4-0.1,14-1.1,8.7,1.2c-0.6,0.2-0.6,1-0.1,1.3l6.7,3.7c1.7,0.9,2.3,3.1,1.4,4.8l-4.2,7.5
				C11.6,20.3,9.5,21,7.8,20l-6.7-3.7C0.6,16-0.1,16.5,0,17.1c0.5,3,1.8,5.8,4.1,8.1c3.1,3.1,7.2,4.5,11.2,4.3
				c1.7-0.1,3.3,0.6,4.5,1.8l48.8,48.8c1.1,1.1,1.7,2.5,1.8,4c0.1,3.1,1.4,6.1,3.7,8.5c5.1,5.1,13.4,5,18.4-0.2
				C97.3,87.4,97.3,79.5,92.6,74.6z M88.2,89.2L87.8,91c-0.1,0.3-0.4,0.5-0.7,0.4l-1.8-0.6c-0.2-0.1-0.4,0-0.6,0.2l-1.3,1.4
				c-0.2,0.2-0.6,0.2-0.8,0L81.4,91c-0.1-0.2-0.4-0.2-0.6-0.2L79,91.5c-0.3,0.1-0.6-0.1-0.7-0.4l-0.4-1.8c0-0.2-0.2-0.4-0.4-0.4
				l-1.8-0.4c-0.3-0.1-0.5-0.4-0.4-0.7l0.6-1.8c0.1-0.2,0-0.4-0.2-0.6l-1.4-1.3c-0.2-0.2-0.2-0.6,0-0.8l1.4-1.3
				c0.2-0.1,0.2-0.4,0.2-0.6l-0.6-1.8c-0.1-0.3,0.1-0.6,0.4-0.7l1.8-0.4c0.2,0,0.4-0.2,0.4-0.4l0.4-1.8c0.1-0.3,0.4-0.5,0.7-0.4
				l1.8,0.6c0.2,0.1,0.4,0,0.6-0.2l1.3-1.4c0.2-0.2,0.6-0.2,0.8,0l1.3,1.4c0.1,0.2,0.4,0.2,0.6,0.2l1.8-0.6c0.3-0.1,0.6,0.1,0.7,0.4
				l0.4,1.8c0,0.2,0.2,0.4,0.4,0.4l1.8,0.4c0.3,0.1,0.5,0.4,0.4,0.7l-0.6,1.8c-0.1,0.2,0,0.4,0.2,0.6l1.4,1.3c0.2,0.2,0.2,0.6,0,0.8
				l-1.4,1.3c-0.2,0.1-0.2,0.4-0.2,0.6l0.6,1.8c0.1,0.3-0.1,0.6-0.4,0.7l-1.8,0.4C88.4,88.8,88.2,89,88.2,89.2z"/>
			<path fill="#5D6D7E" d="M72,72.8L72,72.8c-1.7,1.7-4.5,1.7-6.2,0L25.1,32.1c-1.7-1.7-1.7-4.5,0-6.2l0,0c1.7-1.7,4.5-1.7,6.2,0
				L72,66.5C73.7,68.3,73.7,71.1,72,72.8z"/>
		</g>
	</g>
	<g>
		<g>
			<path fill="#34495E" d="M1.9,90.8C3.6,88.6,7.4,84,9,82.4c0.3-0.3,1.6-1.4,6.8-3.6l0.3-0.1l31.5-32.3l3.9,3.9L19.3,81.8l-0.1,0.3
				c-2.3,5.2-3.4,6.5-3.6,6.8c-1.6,1.6-6.2,5.4-8.4,7.1L1.9,90.8z"/>
			<g>
				<path fill="#E84C3D" d="M92,5.9C87.2,1,80,5.6,79.2,6c0,0,0,0,0,0C74.5,8.6,69,12.4,64.7,17.8c-2.9,3.6-4.8,7.2-6.3,10.1
					c-1.5,3.1-2.5,5.6-3.4,7c-0.1,0.2-1.1,1.5-1.4,1.8c-2.5,3-6.6,7.2-7.6,7.9c-1.2,0.9-7,5.1-7.5,5.5c-0.6,0.4-1.1,1.1-1.1,1.4
					c0,0.4,0.8,1.1,0.7,1.5c-0.1,0.4-0.3,1.4-0.5,2c-0.2,0.7-0.4,1,0.1,1.6c0.3,0.3,1,1.1,1.7,1.8c0.7,0.7,1.5,1.5,1.8,1.7
					c0.7,0.5,0.9,0.4,1.6,0.1c0.7-0.2,1.6-0.5,2-0.5c0.4-0.1,1.1,0.7,1.5,0.7c0.3,0,1-0.6,1.4-1.1c0.4-0.5,4.6-6.3,5.5-7.6
					c0.8-1,4.9-5.1,7.9-7.6c0.4-0.3,1.6-1.3,1.8-1.4c1.4-0.9,3.9-1.9,7-3.4c3-1.5,6.5-3.4,10.1-6.3c5.5-4.4,9.3-9.9,11.8-14.5
					c0,0,0,0,0,0C92.3,17.9,96.8,10.7,92,5.9z M86,7.3c1.2-1.2,3.2-1.1,4.5,0.2c1.3,1.3,1.4,3.3,0.2,4.5s-3.2,1.1-4.5-0.2
					C84.9,10.4,84.8,8.5,86,7.3z"/>
			</g>
		</g>
	</g>
</g>
</svg>
