<svg xmlns="http://www.w3.org/2000/svg" xmlns:xlink="http://www.w3.org/1999/xlink" width="13" height="10" viewBox="0 0 13 10"><defs><path id="qb5xa" d="M536.16 105.999a1.13 1.13 0 0 1-.76-.28l3.684-3.608.254.181c.276.198.5.353.671.465.172.111.4.224.686.34.285.117.55.175.798.175h.014c.247 0 .513-.058.798-.175.285-.116.514-.229.686-.34.171-.112.395-.267.67-.465l.256-.18 3.683 3.606a1.13 1.13 0 0 1-.76.28zm2.086-4.468L535 104.71v-5.485c.213.232.457.438.733.618 1.027.683 1.864 1.246 2.513 1.69zM548 99.224v5.485l-3.245-3.177c.692-.472 1.531-1.035 2.52-1.69.275-.185.517-.391.725-.618zm-.345-2.89c.23.222.345.49.345.802 0 .374-.119.731-.355 1.073a3.41 3.41 0 0 1-.885.873l-2.661 1.808-.734.5-.109.075-.2.141c-.157.112-.287.201-.392.27-.104.069-.23.146-.377.23-.147.086-.286.15-.417.193-.13.042-.251.063-.363.063h-.014a1.19 1.19 0 0 1-.363-.063 2.182 2.182 0 0 1-.417-.192 7.11 7.11 0 0 1-.377-.231 13.801 13.801 0 0 1-.392-.27l-.2-.141-.108-.075-.733-.502c-.333-.227-.721-.492-1.168-.795-.827-.56-1.323-.898-1.487-1.011a3.564 3.564 0 0 1-.849-.82c-.266-.349-.399-.672-.399-.97 0-.37.1-.678.301-.923.2-.247.487-.37.86-.37h10.678c.315 0 .587.112.816.335z"/></defs><g><g transform="translate(-535 -96)"><use fill="#c8c8c8" xlink:href="#qb5xa"/></g></g></svg>