<svg xmlns="http://www.w3.org/2000/svg" xmlns:xlink="http://www.w3.org/1999/xlink" width="20" height="22" viewBox="0 0 20 22"><defs><path id="2bh2a" d="M988.571 8008.656l-8.3-8.364a2.838 2.838 0 0 0-2.128-.907 2.69 2.69 0 0 0-1.986.82c-.543.547-.814 1.214-.814 2.002 0 .844.3 1.56.9 2.145l5.857 5.903c.095.095.2.144.314.144.152 0 .376-.15.671-.447.295-.297.443-.523.443-.677a.441.441 0 0 0-.143-.316l-5.857-5.903c-.238-.259-.357-.542-.357-.849 0-.279.09-.508.272-.691a.926.926 0 0 1 .685-.274c.324 0 .61.115.858.346l8.3 8.364c.6.605.9 1.3.9 2.087 0 .615-.2 1.124-.6 1.527-.4.402-.905.605-1.515.605-.78 0-1.471-.303-2.071-.908l-11.086-11.186c-.724-.73-1.086-1.598-1.086-2.605 0-1.019.348-1.887 1.043-2.607.695-.72 1.548-1.08 2.557-1.08.972 0 1.834.37 2.586 1.108l8.657 8.74a.45.45 0 0 0 .329.143c.152 0 .374-.145.664-.438.29-.293.436-.517.436-.67a.442.442 0 0 0-.143-.316l-8.643-8.725c-1.095-1.085-2.395-1.627-3.9-1.627-1.514 0-2.795.532-3.843 1.598-1.047 1.065-1.571 2.361-1.571 3.887 0 1.497.538 2.799 1.614 3.902l11.1 11.172c.952.96 2.071 1.44 3.357 1.44 1.115 0 2.048-.38 2.8-1.138.753-.758 1.13-1.699 1.13-2.822-.001-1.315-.477-2.442-1.43-3.383z"/></defs><g><g transform="translate(-970 -7994)"><use fill="#3267e0" xlink:href="#2bh2a"/></g></g></svg>