<svg xmlns="http://www.w3.org/2000/svg" xmlns:xlink="http://www.w3.org/1999/xlink" width="12" height="10" viewBox="0 0 12 10"><defs><path id="lcaka" d="M295.782 5259.622l-1.053-1.069a.712.712 0 0 0-.526-.22.712.712 0 0 0-.527.22l-5.077 5.16-2.276-2.316a.713.713 0 0 0-.526-.22.713.713 0 0 0-.526.22l-1.053 1.068a.733.733 0 0 0-.217.534c0 .209.072.387.217.534l2.802 2.844 1.053 1.068a.71.71 0 0 0 .526.22.71.71 0 0 0 .526-.22l1.053-1.068 5.604-5.687a.733.733 0 0 0 .217-.534.731.731 0 0 0-.217-.534z"/></defs><g><g transform="translate(-284 -5258)"><use fill="#3267e0" xlink:href="#lcaka"/></g></g></svg>