<svg xmlns="http://www.w3.org/2000/svg" xmlns:xlink="http://www.w3.org/1999/xlink" width="28" height="17" viewBox="0 0 28 17"><defs><path id="3rpja" d="M947 78.5a1.5 1.5 0 0 1 1.5-1.5h25a1.5 1.5 0 1 1 0 3h-25a1.5 1.5 0 0 1-1.5-1.5z"/><path id="3rpjb" d="M947 71.5a1.5 1.5 0 0 1 1.5-1.5h11a1.5 1.5 0 1 1 0 3h-11a1.5 1.5 0 0 1-1.5-1.5z"/><path id="3rpjc" d="M961 85.5a1.5 1.5 0 0 1 1.5-1.5h11a1.5 1.5 0 1 1 0 3h-11a1.5 1.5 0 0 1-1.5-1.5z"/></defs><g><g transform="translate(-947 -70)"><use xlink:href="#3rpja"/></g><g transform="translate(-947 -70)"><use xlink:href="#3rpjb"/></g><g transform="translate(-947 -70)"><use xlink:href="#3rpjc"/></g></g></svg>