<svg xmlns="http://www.w3.org/2000/svg" xmlns:xlink="http://www.w3.org/1999/xlink" width="13" height="13" viewBox="0 0 13 13"><defs><path id="d0qza" d="M539.08 55.3l-3.004-3.006 1.163-1.164a.46.46 0 0 1 .65-.006l2.341 2.343c.18.179.18.473-.002.654l-.513.513-.477.476c-.059.06-.111.123-.157.19zm3.945 5.13l3.085 3.084c-.737.719-2.568.632-4.177-.153-.69-.336-1.32-.772-1.917-1.226a16.5 16.5 0 0 1-1.674-1.475 17.092 17.092 0 0 1-1.47-1.678c-.452-.597-.89-1.224-1.228-1.92-.787-1.607-.878-3.436-.161-4.174l3.086 3.084c-.182.49-.114 1.07.233 1.47.424.495.872.965 1.329 1.425.458.459.93.908 1.422 1.33.403.347.984.413 1.472.232zm4.842 1.33l-1.166 1.163-3.005-3.006c.069-.048.133-.1.191-.158l.476-.477.514-.513c.18-.18.474-.18.654-.002l2.34 2.342a.46.46 0 0 1-.004.65z"/></defs><g><g transform="translate(-535 -51)"><use fill="#c8c8c8" xlink:href="#d0qza"/></g></g></svg>