<?xml version="1.0" encoding="utf-8"?>
<!-- Generator: Adobe Illustrator 19.0.1, SVG Export Plug-In . SVG Version: 6.00 Build 0)  -->
<svg version="1.1" id="Слой_1" xmlns="http://www.w3.org/2000/svg" xmlns:xlink="http://www.w3.org/1999/xlink" x="0px" y="0px"
	 width="83.9px" height="114.2px" viewBox="0 0 83.9 114.2" enable-background="new 0 0 83.9 114.2" xml:space="preserve">
<g>
	<path fill="#34495E" d="M42,0C18.8,0,0,18.8,0,42c0,9.7,3.5,18.3,8.7,25.6C42,114.2,42,114.2,42,114.2s0,0,33.3-46.6
		c5.2-7.3,8.7-15.9,8.7-25.6C83.9,18.8,65.1,0,42,0z"/>
	<path fill="#FECE30" d="M71.5,42.1c0,16.5-13.3,29.8-29.8,29.8c-16.4,0-29.8-13.3-29.8-29.8c0-16.4,13.3-29.8,29.8-29.8
		C58.1,12.3,71.5,25.7,71.5,42.1z"/>
	<path fill="#EBEBEB" d="M64.8,42.1c0,12.8-10.4,23.2-23.2,23.2c-12.8,0-23.2-10.4-23.2-23.2C18.5,29.3,28.9,19,41.7,19
		C54.5,19,64.8,29.3,64.8,42.1z"/>
	<g>
		<path fill="#FECE66" d="M56.1,42.3c0,8.1-6.6,14.7-14.7,14.7c-8.1,0-14.7-6.6-14.7-14.7c0-8.1,6.6-14.7,14.7-14.7
			C49.5,27.6,56.1,34.2,56.1,42.3z"/>
		<path fill="#F5B540" d="M53.2,42.3c0,6.5-5.3,11.8-11.8,11.8c-6.5,0-11.8-5.3-11.8-11.8c0-6.5,5.3-11.8,11.8-11.8
			C47.9,30.5,53.2,35.8,53.2,42.3z"/>
		<g>
			<path fill="#E84C3D" d="M42.6,43.3h-2.5c-1,0-2-0.4-2.7-1.1c-0.7-0.7-1.1-1.7-1.1-2.7c0-1,0.4-2,1.1-2.7c0.7-0.7,1.7-1.1,2.7-1.1
				h5.4v1.9h-5.4c-0.5,0-1,0.2-1.3,0.5c-0.4,0.4-0.6,0.8-0.6,1.4c0,0.5,0.2,1,0.6,1.3c0.4,0.4,0.8,0.6,1.4,0.6h2.5V43.3z"/>
			<path fill="#E84C3D" d="M42.6,49h-5.4v-1.9h5.4c0.5,0,1-0.2,1.4-0.6c0.4-0.3,0.6-0.8,0.6-1.4c0-0.5-0.2-1-0.6-1.3
				c-0.4-0.4-0.8-0.6-1.4-0.6h-2.5v-1.9h2.5c1,0,2,0.4,2.7,1.1c0.7,0.7,1.1,1.7,1.1,2.7c0,1-0.4,2-1.1,2.7
				C44.6,48.6,43.6,49,42.6,49z"/>
			<rect x="40.4" y="34.9" fill="#E84C3D" width="1.9" height="14.8"/>
		</g>
	</g>
</g>
</svg>
