<?xml version="1.0" encoding="utf-8"?>
<!-- Generator: Adobe Illustrator 19.0.1, SVG Export Plug-In . SVG Version: 6.00 Build 0)  -->
<svg version="1.1" id="Слой_1" xmlns="http://www.w3.org/2000/svg" xmlns:xlink="http://www.w3.org/1999/xlink" x="0px" y="0px"
	 width="83.5px" height="113.9px" viewBox="0 0 83.5 113.9" enable-background="new 0 0 83.5 113.9" xml:space="preserve">
<g>
	<path fill="#EBEBEB" d="M41.8,0L0,19.4v35.8c0,27.2,17.5,50.2,41.8,58.7c24.3-8.4,41.7-31.5,41.7-58.7V19.4L41.8,0z"/>
	<path fill="#34495E" d="M41.8,8.8v96.6c20.3-8.2,33.8-28.1,33.8-50.2V24.5L41.8,8.8z"/>
	<path fill="#5D6D7E" d="M8,24.5v30.7c0,22.1,13.5,41.9,33.8,50.2V8.8L8,24.5z"/>
	<path fill="#FECE30" d="M62.8,55.9c0,11.6-9.4,21.1-21.1,21.1c-11.6,0-21.1-9.4-21.1-21.1c0-11.6,9.4-21.1,21.1-21.1
		C53.4,34.9,62.8,44.3,62.8,55.9z"/>
	<polygon fill="#E84C3D" points="37.9,66.8 28.6,57.5 31.7,54.4 37.9,60.6 51.8,46.7 54.9,49.8 	"/>
</g>
</svg>
