<?xml version="1.0" encoding="utf-8"?>
<!-- Generator: Adobe Illustrator 19.0.1, SVG Export Plug-In . SVG Version: 6.00 Build 0)  -->
<svg version="1.1" id="Слой_1" xmlns="http://www.w3.org/2000/svg" xmlns:xlink="http://www.w3.org/1999/xlink" x="0px" y="0px"
	 width="77.6px" height="114.1px" viewBox="0 0 77.6 114.1" enable-background="new 0 0 77.6 114.1" xml:space="preserve">
<g>
	<path fill="#2D3E50" d="M61.9,0H15.7c-4.4,0-8,3.6-8,8v98.2c0,4.4,3.6,8,8,8h46.2c4.4,0,7.9-3.6,7.9-8V8C69.9,3.6,66.3,0,61.9,0z"
		/>
	<rect x="12.3" y="17.3" fill="#EBEBEB" width="53.1" height="79.6"/>
	<path fill="#5D6D7E" d="M33.9,108c-1.2,0-2.1-1-2.1-2.1v-0.6c0-1.2,1-2.1,2.1-2.1h9.8c1.2,0,2.1,1,2.1,2.1v0.6c0,1.2-1,2.1-2.1,2.1
		H33.9z"/>
	<path fill="#5D6D7E" d="M40.8,8.6c0,1.1-0.9,2-2,2c-1.1,0-2-0.9-2-2c0-1.1,0.9-2,2-2C39.9,6.6,40.8,7.5,40.8,8.6z"/>
	<path fill="#343B43" d="M39.6,8.6c0,0.4-0.4,0.8-0.8,0.8c-0.4,0-0.8-0.4-0.8-0.8c0-0.4,0.4-0.8,0.8-0.8C39.3,7.8,39.6,8.2,39.6,8.6
		z"/>
	<circle fill="#E84C3D" cx="38.8" cy="70.2" r="17.8"/>
	<g>
		
			<rect x="37.5" y="59.6" transform="matrix(0.7071 0.7071 -0.7071 0.7071 61.0409 -6.8691)" fill="#FFFFFF" width="2.6" height="21.4"/>
		<g>
			<path fill="#FFFFFF" d="M43.5,79.1c-2.3,0-4.2-1.9-4.2-4.2c0-2.3,1.9-4.2,4.2-4.2c2.3,0,4.2,1.9,4.2,4.2
				C47.7,77.3,45.8,79.1,43.5,79.1z M43.5,73.4c-0.8,0-1.5,0.7-1.5,1.5c0,0.8,0.7,1.5,1.5,1.5c0.8,0,1.5-0.7,1.5-1.5
				C45.1,74.1,44.4,73.4,43.5,73.4z"/>
			<path fill="#FFFFFF" d="M34.1,69.7c-2.3,0-4.2-1.9-4.2-4.2c0-2.3,1.9-4.2,4.2-4.2c2.3,0,4.2,1.9,4.2,4.2
				C38.3,67.8,36.4,69.7,34.1,69.7z M34.1,64c-0.8,0-1.5,0.7-1.5,1.5c0,0.8,0.7,1.5,1.5,1.5c0.8,0,1.5-0.7,1.5-1.5
				C35.6,64.7,34.9,64,34.1,64z"/>
		</g>
	</g>
	<g>
		<g>
			<path fill="#ECA334" d="M23.3,43.6c4.3,0,7.8-3.5,7.8-7.8H15.5C15.5,40.1,19,43.6,23.3,43.6z"/>
			<path fill="#F5B540" d="M7.8,43.6c4.3,0,7.8-3.5,7.8-7.8H0C0,40.1,3.5,43.6,7.8,43.6z"/>
			<path fill="#F5B540" d="M38.8,43.6c4.3,0,7.8-3.5,7.8-7.8H31.1C31.1,40.1,34.5,43.6,38.8,43.6z"/>
			<path fill="#ECA334" d="M54.3,43.6c4.3,0,7.8-3.5,7.8-7.8H46.6C46.6,40.1,50.1,43.6,54.3,43.6z"/>
			<path fill="#F5B540" d="M69.9,43.6c4.3,0,7.8-3.5,7.8-7.8H62.1C62.1,40.1,65.6,43.6,69.9,43.6z"/>
		</g>
		<g>
			<polygon fill="#FECE66" points="22.9,17.3 12.3,17.3 0,35.8 15.5,35.8 			"/>
			<polygon fill="#F5B540" points="33.5,17.3 22.9,17.3 15.5,35.8 31,35.8 			"/>
			<polygon fill="#FECE66" points="44.1,17.3 33.5,17.3 31.1,35.8 46.6,35.8 			"/>
			<polygon fill="#F5B540" points="54.7,17.3 44.1,17.3 46.6,35.8 62.1,35.8 			"/>
			<polygon fill="#FECE66" points="65.4,17.3 54.7,17.3 62.1,35.8 77.6,35.8 			"/>
		</g>
	</g>
</g>
</svg>
