<?xml version="1.0" encoding="utf-8"?>
<!-- Generator: Adobe Illustrator 19.0.1, SVG Export Plug-In . SVG Version: 6.00 Build 0)  -->
<svg version="1.1" id="Слой_1" xmlns="http://www.w3.org/2000/svg" xmlns:xlink="http://www.w3.org/1999/xlink" x="0px" y="0px"
	 width="114.7px" height="115.3px" viewBox="0 0 114.7 115.3" enable-background="new 0 0 114.7 115.3" xml:space="preserve">
<g>
	<polygon fill="#576573" points="61.7,0 53,0 50.5,12.7 64.2,12.7 	"/>
	<polygon fill="#576573" points="32.5,5.5 24.9,9.9 29,22.2 41,15.3 	"/>
	<polygon fill="#576573" points="9.9,25 5.5,32.6 15.2,41.2 22.1,29.2 	"/>
	<polygon fill="#576573" points="0,53.3 0,62 12.7,64.6 12.7,50.7 	"/>
	<polygon fill="#576573" points="5.5,82.7 9.9,90.3 22.1,86.1 15.2,74.1 	"/>
	<polygon fill="#576573" points="24.9,105.4 32.5,109.8 41,100 29,93.1 	"/>
	<polygon fill="#576573" points="53,115.3 61.7,115.3 64.2,102.6 50.5,102.6 	"/>
	<polygon fill="#576573" points="82.3,109.8 89.8,105.4 85.7,93.1 73.8,100 	"/>
	<polygon fill="#576573" points="104.9,90.3 109.2,82.7 99.5,74.1 92.6,86.1 	"/>
	<polygon fill="#576573" points="114.7,62 114.7,53.3 102.1,50.7 102.1,64.6 	"/>
	<polygon fill="#576573" points="109.2,32.6 104.9,25 92.6,29.2 99.5,41.2 	"/>
	<polygon fill="#576573" points="89.8,9.9 82.3,5.5 73.8,15.3 85.7,22.2 	"/>
</g>
<path fill="#2D3E50" d="M57.4,12.2c-25,0-45.2,20.3-45.2,45.4c0,25.1,20.2,45.4,45.2,45.4c25,0,45.2-20.3,45.2-45.4
	C102.6,32.5,82.3,12.2,57.4,12.2z M57.4,92.2c-19,0-34.4-15.5-34.4-34.6c0-19.1,15.4-34.6,34.4-34.6c19,0,34.4,15.5,34.4,34.6
	C91.8,76.7,76.4,92.2,57.4,92.2z"/>
<path fill="#343B43" d="M74.8,75.2c-4.5,4.5-10.6,7.3-17.4,7.3c-13.6,0-24.7-11.1-24.7-24.8c0-10.3,6.3-19.2,15.2-22.9l9.4,22.9
	L74.8,75.2z"/>
<path fill="#FECE30" d="M82,57.6H57.4V32.9C71,32.9,82,44,82,57.6z"/>
<path fill="#E84C3D" d="M82,57.6c0,6.8-2.8,13-7.2,17.5L57.4,57.6H82z"/>
<path fill="#F7941E" d="M57.4,32.9v24.8l-9.4-22.9C50.8,33.5,54,32.9,57.4,32.9z"/>
</svg>
