<svg xmlns="http://www.w3.org/2000/svg" xmlns:xlink="http://www.w3.org/1999/xlink" width="13" height="13" viewBox="0 0 13 13"><defs><path id="3ms4a" d="M548 79.499c0 1.18-.29 2.267-.87 3.264a6.48 6.48 0 0 1-2.367 2.365A6.361 6.361 0 0 1 541.5 86c-1.18 0-2.267-.29-3.263-.872a6.479 6.479 0 0 1-2.366-2.365 6.366 6.366 0 0 1-.872-3.264c0-1.18.29-2.267.872-3.263a6.472 6.472 0 0 1 2.366-2.366 6.355 6.355 0 0 1 3.263-.872c1.18 0 2.267.29 3.263.872a6.471 6.471 0 0 1 2.366 2.366c.581.996.872 2.084.872 3.263zm-1.895 0c0-.835-.206-1.605-.618-2.31a4.595 4.595 0 0 0-1.676-1.677 4.504 4.504 0 0 0-2.311-.618c-.835 0-1.606.207-2.31.618a4.594 4.594 0 0 0-1.677 1.676 4.501 4.501 0 0 0-.618 2.311c0 .836.206 1.606.618 2.31a4.59 4.59 0 0 0 1.676 1.677 4.499 4.499 0 0 0 2.311.618c.835 0 1.606-.206 2.31-.618a4.59 4.59 0 0 0 1.677-1.676 4.497 4.497 0 0 0 .618-2.311zm-3.598-3.174c.051.05.077.116.077.195v3.792a.262.262 0 0 1-.27.27h-2.71a.263.263 0 0 1-.195-.075.263.263 0 0 1-.076-.195v-.542c0-.08.025-.144.076-.195a.265.265 0 0 1 .195-.076h1.896v-2.98c0-.078.026-.143.076-.194a.265.265 0 0 1 .195-.076h.542c.079 0 .144.025.194.076z"/></defs><g><g transform="translate(-535 -73)"><use fill="#c8c8c8" xlink:href="#3ms4a"/></g></g></svg>